<?xml version="1.0" encoding="UTF-8" standalone="no"?>
<svg
   viewBox="0 0 87.87 87.87"
   width="117.16"
   height="117.16"
   version="1.1"
   id="svg3"
   xmlns="http://www.w3.org/2000/svg">
  <defs
     id="defs1">
    <clipPath
       clipPathUnits="userSpaceOnUse"
       id="clipPath2314">
      <path
         d="m 337.323,338.74 h 55.275 v 55.275 h -55.275 z"
         transform="translate(-340.48051,-356.11941)"
         id="path2314" />
    </clipPath>
    <clipPath
       clipPathUnits="userSpaceOnUse"
       id="clipPath2316">
      <path
         d="m 337.323,338.74 h 55.275 v 55.275 h -55.275 z"
         transform="translate(-348.89926,-345.16251)"
         id="path2316" />
    </clipPath>
    <clipPath
       clipPathUnits="userSpaceOnUse"
       id="clipPath2318">
      <path
         d="m 337.323,338.74 h 55.275 v 55.275 h -55.275 z"
         transform="translate(-365.18476,-393.12301)"
         id="path2318" />
    </clipPath>
    <clipPath
       clipPathUnits="userSpaceOnUse"
       id="clipPath2320">
      <path
         d="m 337.323,338.74 h 55.275 v 55.275 h -55.275 z"
         transform="translate(-374.87476,-371.95321)"
         id="path2320" />
    </clipPath>
  </defs>
  <g
     id="g2391"
     transform="matrix(1.1922967,0,0,1.1924082,-23982.967,-49.576409)">
    <path
       id="path2313"
       d="m 0,0 c 0.894,-2.149 2.069,-4.179 3.493,-6.031 l 4.496,3.457 C 6.867,-1.114 5.94,0.485 5.237,2.177 Z"
       style="fill:#000000;fill-opacity:1;fill-rule:nonzero;stroke:none"
       transform="matrix(1.3333333,0,0,-1.3333333,20118.842,92.103467)"
       clip-path="url(#clipPath2314)" />
    <path
       id="path2315"
       d="M 0,0 C 1.852,-1.423 3.883,-2.599 6.034,-3.491 L 8.208,1.747 C 6.515,2.449 4.916,3.375 3.456,4.498 Z"
       style="fill:#000000;fill-opacity:1;fill-rule:nonzero;stroke:none"
       transform="matrix(1.3333333,0,0,-1.3333333,20130.067,106.71267)"
       clip-path="url(#clipPath2316)" />
    <path
       id="path2317"
       d="m 0,0 c -14.746,0 -26.745,-11.998 -26.745,-26.745 0,-1.174 0.078,-2.357 0.229,-3.512 l 5.624,0.74 c -0.12,0.911 -0.181,1.843 -0.181,2.772 0,11.619 9.454,21.073 21.073,21.073 11.622,0 21.076,-9.454 21.076,-21.073 0,-11.617 -9.454,-21.072 -21.076,-21.072 -0.927,0 -1.861,0.062 -2.774,0.182 l -0.739,-5.625 c 1.157,-0.151 2.34,-0.228 3.513,-0.228 14.75,0 26.748,11.998 26.748,26.743 C 26.748,-11.998 14.75,0 0,0"
       style="fill:#000000;fill-opacity:1;fill-rule:nonzero;stroke:none"
       transform="matrix(1.3333333,0,0,-1.3333333,20151.781,42.765333)"
       clip-path="url(#clipPath2318)" />
    <path
       id="path2319"
       d="M 0,0 -0.044,0.05 -3.411,-2.962 V 0.267 H 0 Z m 0,-5.629 -0.044,0.05 -3.367,-3.012 v 3.342 L 0,-2.198 Z m -17.106,8.393 7.767,4.184 7.4,-4.184 z m 11.972,-7.266 -3.411,-3.052 v 7.821 h 3.411 z m 0,-5.629 -3.411,-3.052 v 3.342 l 3.411,3.051 z m -5.133,2.269 -3.496,3.126 v 5.003 h 3.496 z m 0,-5.629 -3.496,3.126 v 3.342 l 3.496,-3.126 z m -5.218,10.296 -3.266,2.92 v 0.542 h 3.266 z m 0,-5.629 -3.266,2.921 v 3.341 l 3.266,-2.921 z m 6.079,18.643 c 0.486,0 0.882,-0.397 0.882,-0.883 0,-0.487 -0.396,-0.882 -0.882,-0.882 -0.487,0 -0.883,0.395 -0.883,0.882 0,0.486 0.396,0.883 0.883,0.883 M 0.161,2.764 -8.178,7.479 c 0.416,0.351 0.687,0.87 0.687,1.457 0,1.056 -0.859,1.915 -1.915,1.915 -1.057,0 -1.916,-0.859 -1.916,-1.915 0,-0.606 0.288,-1.14 0.728,-1.491 l -8.69,-4.681 h -4.181 V 0.267 h 2.992 v -12.869 l 0.034,-0.035 1.688,-1.589 v 6.036 l 3.266,-2.922 v -6.19 l 1.722,-1.622 v 6.272 l 3.496,-3.127 v -6.437 l 0.861,-0.811 0.861,0.811 v 6.746 l 3.411,3.052 v -6.585 l 1.723,1.622 v 6.503 L 0,-7.826 v -6.342 l 1.626,1.531 0.096,0.1 V 0.267 h 2.586 v 2.497 z"
       style="fill:#000000;fill-opacity:1;fill-rule:nonzero;stroke:none"
       transform="matrix(1.3333333,0,0,-1.3333333,20164.701,70.991733)"
       clip-path="url(#clipPath2320)" />
  </g>
</svg>
