<?xml version="1.0" encoding="UTF-8" standalone="no"?>
<svg
   viewBox="0 0 87.87 87.87"
   width="117.16"
   height="117.16"
   version="1.1"
   id="svg3"
   xmlns="http://www.w3.org/2000/svg">
  <defs
     id="defs1">
    <clipPath
       clipPathUnits="userSpaceOnUse"
       id="clipPath38890">
      <path
         d="m 28.346,338.74 h 55.275 v 55.275 H 28.346 Z"
         transform="translate(-53.500001,-345.47401)"
         id="path38890" />
    </clipPath>
    <clipPath
       clipPathUnits="userSpaceOnUse"
       id="clipPath38892">
      <path
         d="m 28.346,338.74 h 55.275 v 55.275 H 28.346 Z"
         transform="translate(-72.507252,-387.58531)"
         id="path38892" />
    </clipPath>
    <clipPath
       clipPathUnits="userSpaceOnUse"
       id="clipPath38894">
      <path
         d="m 28.346,338.74 h 55.275 v 55.275 H 28.346 Z"
         transform="translate(-31.528001,-356.06071)"
         id="path38894" />
    </clipPath>
    <clipPath
       clipPathUnits="userSpaceOnUse"
       id="clipPath38896">
      <path
         d="m 28.346,338.74 h 55.275 v 55.275 H 28.346 Z"
         transform="translate(-39.981251,-345.11581)"
         id="path38896" />
    </clipPath>
    <clipPath
       clipPathUnits="userSpaceOnUse"
       id="clipPath38898">
      <path
         d="m 28.346,338.74 h 55.275 v 55.275 H 28.346 Z"
         transform="translate(-64.304502,-346.91291)"
         id="path38898" />
    </clipPath>
    <clipPath
       clipPathUnits="userSpaceOnUse"
       id="clipPath38900">
      <path
         d="m 28.346,338.74 h 55.275 v 55.275 H 28.346 Z"
         transform="translate(-82.729752,-369.87051)"
         id="path38900" />
    </clipPath>
    <clipPath
       clipPathUnits="userSpaceOnUse"
       id="clipPath38902">
      <path
         d="m 28.346,338.74 h 55.275 v 55.275 H 28.346 Z"
         transform="translate(-72.943002,-353.56451)"
         id="path38902" />
    </clipPath>
    <clipPath
       clipPathUnits="userSpaceOnUse"
       id="clipPath38904">
      <path
         d="m 28.346,338.74 h 55.275 v 55.275 H 28.346 Z"
         transform="translate(-80.926002,-376.61451)"
         id="path38904" />
    </clipPath>
    <clipPath
       clipPathUnits="userSpaceOnUse"
       id="clipPath38906">
      <path
         d="m 28.346,338.74 h 55.275 v 55.275 H 28.346 Z"
         transform="translate(-35.135501,-366.37741)"
         id="path38906" />
    </clipPath>
    <clipPath
       clipPathUnits="userSpaceOnUse"
       id="clipPath38908">
      <path
         d="m 28.346,338.74 h 55.275 v 55.275 H 28.346 Z"
         transform="translate(-63.745752,-366.05761)"
         id="path38908" />
    </clipPath>
    <clipPath
       clipPathUnits="userSpaceOnUse"
       id="clipPath38910">
      <path
         d="m 28.346,338.74 h 55.275 v 55.275 H 28.346 Z"
         transform="translate(-48.659501,-366.19441)"
         id="path38910" />
    </clipPath>
  </defs>
  <g
     id="g38953"
     transform="matrix(1.1923134,0,0,1.1922878,-112245.03,-49.570628)">
    <path
       id="path38889"
       d="m 0,0 -0.721,-5.625 c 1.13,-0.145 2.283,-0.219 3.43,-0.219 1.182,0 2.372,0.079 3.538,0.232 L 5.503,0.011 C 3.691,-0.229 1.81,-0.233 0,0"
       style="fill:#000000;fill-opacity:1;fill-rule:nonzero;stroke:none"
       transform="matrix(1.3333333,0,0,-1.3333333,94173.784,106.29733)"
       clip-path="url(#clipPath38890)" />
    <path
       id="path38891"
       d="M 0,0 C -1.853,1.427 -3.885,2.604 -6.039,3.498 L -8.216,-1.739 C -6.52,-2.443 -4.92,-3.372 -3.46,-4.494 Z"
       style="fill:#000000;fill-opacity:1;fill-rule:nonzero;stroke:none"
       transform="matrix(1.3333333,0,0,-1.3333333,94199.127,50.148933)"
       clip-path="url(#clipPath38892)" />
    <path
       id="path38893"
       d="M 0,0 C 0.898,-2.15 2.079,-4.177 3.509,-6.029 L 7.997,-2.56 C 6.87,-1.101 5.94,0.495 5.232,2.187 Z"
       style="fill:#000000;fill-opacity:1;fill-rule:nonzero;stroke:none"
       transform="matrix(1.3333333,0,0,-1.3333333,94144.488,92.181733)"
       clip-path="url(#clipPath38894)" />
    <path
       id="path38895"
       d="m 0,0 c 1.858,-1.42 3.893,-2.591 6.049,-3.48 l 2.16,5.245 C 6.511,2.464 4.909,3.386 3.445,4.506 Z"
       style="fill:#000000;fill-opacity:1;fill-rule:nonzero;stroke:none"
       transform="matrix(1.3333333,0,0,-1.3333333,94155.759,106.77493)"
       clip-path="url(#clipPath38896)" />
    <path
       id="path38897"
       d="m 0,0 2.18,-5.236 c 2.152,0.896 4.181,2.073 6.034,3.5 L 4.752,2.757 C 3.292,1.634 1.694,0.705 0,0"
       style="fill:#000000;fill-opacity:1;fill-rule:nonzero;stroke:none"
       transform="matrix(1.3333333,0,0,-1.3333333,94188.19,104.3788)"
       clip-path="url(#clipPath38898)" />
    <path
       id="path38899"
       d="m 0,0 -5.624,-0.735 c 0.118,-0.907 0.178,-1.835 0.178,-2.758 0,-0.917 -0.06,-1.84 -0.177,-2.746 L 0.003,-6.967 C 0.152,-5.82 0.226,-4.651 0.226,-3.493 0.226,-2.326 0.15,-1.151 0,0"
       style="fill:#000000;fill-opacity:1;fill-rule:nonzero;stroke:none"
       transform="matrix(1.3333333,0,0,-1.3333333,94212.757,73.768667)"
       clip-path="url(#clipPath38900)" />
    <path
       id="path38901"
       d="m 0,0 4.5,-3.453 c 1.424,1.855 2.597,3.889 3.489,6.044 L 2.748,4.759 C 2.047,3.062 1.122,1.461 0,0"
       style="fill:#000000;fill-opacity:1;fill-rule:nonzero;stroke:none"
       transform="matrix(1.3333333,0,0,-1.3333333,94199.708,95.51)"
       clip-path="url(#clipPath38902)" />
    <path
       id="path38903"
       d="M 0,0 C -0.894,2.154 -2.068,4.185 -3.492,6.039 L -7.991,2.585 c 1.123,-1.461 2.049,-3.062 2.752,-4.759 z"
       style="fill:#000000;fill-opacity:1;fill-rule:nonzero;stroke:none"
       transform="matrix(1.3333333,0,0,-1.3333333,94210.352,64.776667)"
       clip-path="url(#clipPath38904)" />
    <path
       id="path38905"
       d="m 0,0 c 0,11.619 9.454,21.074 21.074,21.074 0.928,0 1.861,-0.062 2.775,-0.181 l 0.739,5.624 c -1.158,0.151 -2.34,0.229 -3.514,0.229 C 6.327,26.746 -5.672,14.747 -5.672,0 c 0,-1.175 0.077,-2.358 0.229,-3.515 l 5.624,0.741 C 0.062,-1.862 0,-0.928 0,0"
       style="fill:#000000;fill-opacity:1;fill-rule:nonzero;stroke:none"
       transform="matrix(1.3333333,0,0,-1.3333333,94149.298,78.426133)"
       clip-path="url(#clipPath38906)" />
    <path
       id="path38907"
       d="m 0,0 c -1.321,-0.507 -2.669,-2.412 -4.135,-3.725 -1.795,-1.607 -5.297,-1.873 -5.297,-1.873 0.428,0.393 2.319,1.525 2.674,1.836 1.885,1.652 1.068,3.602 0.031,3.256 -1.371,-0.457 -2.072,-1.05 -4.701,-2.291 -1.994,-0.939 -4.49,-1.611 -5.529,-2.435 -1.467,-1.163 -2.804,-6.295 -2.804,-6.295 l 5.422,-2.716 c 0,0 1.773,3.342 3.025,3.736 2.85,0.899 2.953,0.974 5.555,1.952 1.107,0.414 1.327,0.534 1.902,0.956 3.066,2.24 5.777,6.491 5.728,6.884 C 1.757,0.194 0.699,0.269 0,0"
       style="fill:#000000;fill-opacity:1;fill-rule:nonzero;stroke:none"
       transform="matrix(1.3333333,0,0,-1.3333333,94187.445,78.852533)"
       clip-path="url(#clipPath38908)" />
    <path
       id="path38909"
       d="M 0,0 C 1.321,0.507 2.669,2.412 4.135,3.724 5.93,5.332 9.432,5.598 9.432,5.598 9.004,5.205 7.113,4.073 6.758,3.762 4.873,2.11 5.69,0.16 6.727,0.506 c 1.371,0.457 2.072,1.05 4.701,2.291 1.994,0.939 4.49,1.611 5.529,2.435 1.467,1.163 2.804,6.295 2.804,6.295 l -5.422,2.716 c 0,0 -1.773,-3.342 -3.025,-3.736 C 8.464,9.608 8.361,9.533 5.759,8.555 4.652,8.141 4.432,8.021 3.857,7.599 0.791,5.359 -1.92,1.108 -1.871,0.715 -1.757,-0.194 -0.699,-0.269 0,0"
       style="fill:#000000;fill-opacity:1;fill-rule:nonzero;stroke:none"
       transform="matrix(1.3333333,0,0,-1.3333333,94167.33,78.670133)"
       clip-path="url(#clipPath38910)" />
  </g>
</svg>
