<?xml version="1.0" encoding="UTF-8" standalone="no"?>
<svg
   viewBox="0 0 87.87 87.87"
   width="117.16"
   height="117.16"
   version="1.1"
   id="svg3"
   xmlns="http://www.w3.org/2000/svg">
  <defs
     id="defs1">
    <clipPath
       clipPathUnits="userSpaceOnUse"
       id="clipPath4178">
      <path
         d="M 0,0 H 612.283 V 425.197 H 0 Z"
         transform="translate(-53.184501,-344.77851)"
         id="path4178" />
    </clipPath>
    <clipPath
       clipPathUnits="userSpaceOnUse"
       id="clipPath4180">
      <path
         d="M 0,0 H 612.283 V 425.197 H 0 Z"
         transform="translate(-72.824752,-388.29351)"
         id="path4180" />
    </clipPath>
    <clipPath
       clipPathUnits="userSpaceOnUse"
       id="clipPath4182">
      <path
         d="M 0,0 H 612.283 V 425.197 H 0 Z"
         transform="translate(-30.479751,-355.71811)"
         id="path4182" />
    </clipPath>
    <clipPath
       clipPathUnits="userSpaceOnUse"
       id="clipPath4184">
      <path
         d="M 0,0 H 612.283 V 425.197 H 0 Z"
         transform="translate(-39.215001,-344.40831)"
         id="path4184" />
    </clipPath>
    <clipPath
       clipPathUnits="userSpaceOnUse"
       id="clipPath4186">
      <path
         d="M 0,0 H 612.283 V 425.197 H 0 Z"
         transform="translate(-64.349002,-346.26541)"
         id="path4186" />
    </clipPath>
    <clipPath
       clipPathUnits="userSpaceOnUse"
       id="clipPath4188">
      <path
         d="M 0,0 H 612.283 V 425.197 H 0 Z"
         transform="translate(-83.387752,-369.98821)"
         id="path4188" />
    </clipPath>
    <clipPath
       clipPathUnits="userSpaceOnUse"
       id="clipPath4190">
      <path
         d="M 0,0 H 612.283 V 425.197 H 0 Z"
         transform="translate(-73.275502,-353.13871)"
         id="path4190" />
    </clipPath>
    <clipPath
       clipPathUnits="userSpaceOnUse"
       id="clipPath4192">
      <path
         d="M 0,0 H 612.283 V 425.197 H 0 Z"
         transform="translate(-81.524752,-376.95701)"
         id="path4192" />
    </clipPath>
    <clipPath
       clipPathUnits="userSpaceOnUse"
       id="clipPath4194">
      <path
         d="M 0,0 H 612.283 V 425.197 H 0 Z"
         transform="translate(-34.207251,-366.37871)"
         id="path4194" />
    </clipPath>
    <clipPath
       clipPathUnits="userSpaceOnUse"
       id="clipPath4196">
      <path
         d="M 0,0 H 612.283 V 425.197 H 0 Z"
         transform="translate(-55.580751,-372.74151)"
         id="path4196" />
    </clipPath>
    <clipPath
       clipPathUnits="userSpaceOnUse"
       id="clipPath4198">
      <path
         d="M 0,0 H 612.283 V 425.197 H 0 Z"
         transform="translate(-62.827252,-361.07531)"
         id="path4198" />
    </clipPath>
  </defs>
  <path
     id="path4177"
     d="m 0,0 -0.745,-5.813 c 1.167,-0.15 2.359,-0.226 3.544,-0.226 1.221,0 2.451,0.081 3.656,0.24 L 5.687,0.011 C 3.814,-0.237 1.871,-0.24 0,0"
     style="fill:#000000;fill-opacity:1;fill-rule:nonzero;stroke:none"
     transform="matrix(1.5384639,0,0,-1.5384444,39.630078,77.166024)"
     clip-path="url(#clipPath4178)" />
  <path
     id="path4179"
     d="m 0,0 c -1.914,1.474 -4.014,2.69 -6.24,3.615 l -2.25,-5.412 c 1.753,-0.728 3.406,-1.687 4.915,-2.847 z"
     style="fill:#000000;fill-opacity:1;fill-rule:nonzero;stroke:none"
     transform="matrix(1.5384639,0,0,-1.5384444,69.845895,10.22061)"
     clip-path="url(#clipPath4180)" />
  <path
     id="path4181"
     d="m 0,0 c 0.929,-2.222 2.148,-4.317 3.626,-6.23 l 4.637,3.584 C 7.098,-1.138 6.138,0.511 5.407,2.26 Z"
     style="fill:#000000;fill-opacity:1;fill-rule:nonzero;stroke:none"
     transform="matrix(1.5384639,0,0,-1.5384444,4.6996352,60.336053)"
     clip-path="url(#clipPath4182)" />
  <path
     id="path4183"
     d="m 0,0 c 1.919,-1.468 4.023,-2.677 6.25,-3.596 l 2.232,5.42 C 6.728,2.546 5.072,3.499 3.56,4.656 Z"
     style="fill:#000000;fill-opacity:1;fill-rule:nonzero;stroke:none"
     transform="matrix(1.5384639,0,0,-1.5384444,18.138502,77.735556)"
     clip-path="url(#clipPath4184)" />
  <path
     id="path4185"
     d="m 0,0 2.253,-5.411 c 2.223,0.926 4.32,2.142 6.234,3.618 L 4.911,2.849 C 3.402,1.688 1.75,0.729 0,0"
     style="fill:#000000;fill-opacity:1;fill-rule:nonzero;stroke:none"
     transform="matrix(1.5384639,0,0,-1.5384444,56.806259,74.878503)"
     clip-path="url(#clipPath4186)" />
  <path
     id="path4187"
     d="m 0,0 -5.811,-0.759 c 0.122,-0.938 0.184,-1.897 0.184,-2.851 0,-0.947 -0.062,-1.9 -0.183,-2.837 L 0.003,-7.2 c 0.153,1.186 0.231,2.394 0.231,3.59 C 0.234,-2.404 0.155,-1.189 0,0"
     style="fill:#000000;fill-opacity:1;fill-rule:nonzero;stroke:none"
     transform="matrix(1.5384639,0,0,-1.5384444,86.09669,38.382296)"
     clip-path="url(#clipPath4188)" />
  <path
     id="path4189"
     d="M 0,0 4.65,-3.568 C 6.122,-1.651 7.334,0.45 8.256,2.677 L 2.84,4.917 C 2.115,3.165 1.159,1.51 0,0"
     style="fill:#000000;fill-opacity:1;fill-rule:nonzero;stroke:none"
     transform="matrix(1.5384639,0,0,-1.5384444,70.539357,64.304317)"
     clip-path="url(#clipPath4190)" />
  <path
     id="path4191"
     d="M 0,0 C -0.923,2.226 -2.137,4.324 -3.608,6.24 L -8.257,2.671 c 1.16,-1.51 2.116,-3.164 2.844,-4.917 z"
     style="fill:#000000;fill-opacity:1;fill-rule:nonzero;stroke:none"
     transform="matrix(1.5384639,0,0,-1.5384444,83.230531,27.661185)"
     clip-path="url(#clipPath4192)" />
  <path
     id="path4193"
     d="m 0,0 c 0,12.007 9.77,21.776 21.776,21.776 0.959,0 1.923,-0.064 2.868,-0.187 l 0.764,5.812 C 24.211,27.557 22.99,27.637 21.776,27.637 6.538,27.637 -5.861,15.239 -5.861,0 c 0,-1.214 0.08,-2.436 0.237,-3.632 l 5.811,0.766 C 0.064,-1.924 0,-0.96 0,0"
     style="fill:#000000;fill-opacity:1;fill-rule:nonzero;stroke:none"
     transform="matrix(1.5384639,0,0,-1.5384444,10.43426,43.935311)"
     clip-path="url(#clipPath4194)" />
  <path
     id="path4195"
     d="M 0,0 C 1.426,0.149 2.406,1.354 2.258,2.779 2.109,4.202 0.888,5.205 -0.517,5.057 -1.895,4.913 -2.944,3.633 -2.805,2.263 -2.668,0.891 -1.386,-0.142 0,0"
     style="fill:#000000;fill-opacity:1;fill-rule:nonzero;stroke:none"
     transform="matrix(1.5384639,0,0,-1.5384444,43.316622,34.146498)"
     clip-path="url(#clipPath4196)" />
  <path
     id="path4197"
     d="m 0,0 -4.221,9.809 c 3.131,1.864 4.346,5.818 2.754,9.126 l -0.822,1.707 c -0.233,0.485 -0.816,0.688 -1.301,0.455 -0.486,-0.233 -0.689,-0.816 -0.456,-1.301 l 0.822,-1.706 c 1.115,-2.317 0.329,-5.072 -1.776,-6.472 0,0 -0.292,-0.186 -0.303,-0.192 l -9.82,-3.388 c -0.509,-0.176 -0.78,-0.731 -0.604,-1.24 0.139,-0.404 0.518,-0.657 0.922,-0.657 0.105,0 0.213,0.017 0.318,0.053 l 6.338,2.187 -0.331,-9.955 -6.075,-2.267 c -0.505,-0.188 -0.761,-0.749 -0.573,-1.254 0.146,-0.392 0.518,-0.634 0.914,-0.634 0.113,0 0.228,0.019 0.341,0.061 l 8.254,3.081 0.094,-7.015 c 0.006,-0.534 0.442,-0.962 0.975,-0.962 h 0.012 c 0.539,0.007 0.969,0.449 0.963,0.988 l -0.112,8.409 z"
     style="fill:#000000;fill-opacity:1;fill-rule:nonzero;stroke:none"
     transform="matrix(1.5384639,0,0,-1.5384444,54.465101,52.094298)"
     clip-path="url(#clipPath4198)" />
</svg>
