<?xml version="1.0" encoding="UTF-8" standalone="no"?>
<svg xmlns="http://www.w3.org/2000/svg" style="isolation:isolate" viewBox="0 0 87.87 87.87" width="87.87pt" height="87.87pt"><defs><clipPath id="_clipPath_naanOWKamuqPJVb4M2GDJpp34nVgrf4S"><rect width="87.87" height="87.87"/></clipPath></defs><g clip-path="url(#_clipPath_naanOWKamuqPJVb4M2GDJpp34nVgrf4S)"><path d=" M 38.18 21.09 C 34.55 21.09 31.61 31.32 31.61 43.94 C 31.61 56.56 34.55 66.79 38.18 66.79 C 41.81 66.79 44.75 56.56 44.75 43.94 C 44.75 31.32 41.81 21.09 38.18 21.09 Z  M 38.18 56.98 C 36.12 56.98 34.45 51.14 34.45 43.94 C 34.45 36.74 36.12 30.9 38.18 30.9 C 40.24 30.9 41.9 36.74 41.9 43.94 C 41.91 51.14 40.24 56.98 38.18 56.98 Z " fill="rgb(35,31,32)"/><path d=" M 52.07 26.16 L 54.57 26.16 L 54.57 61.82 L 52.07 61.82 L 52.07 26.16 Z " fill="rgb(35,31,32)"/><path d=" M 53.36 20.39 C 54.96 20.39 56.26 22.92 56.26 26.05 C 56.26 29.18 54.96 31.71 53.35 31.71 C 51.75 31.71 50.45 29.18 50.45 26.05 C 50.45 22.93 51.75 20.39 53.36 20.39 Z " fill-rule="evenodd" fill="rgb(35,31,32)"/><path d=" M 53.36 56.16 C 54.96 56.16 56.26 58.69 56.26 61.82 C 56.26 64.95 54.96 67.48 53.36 67.48 C 51.76 67.48 50.46 64.95 50.45 61.82 C 50.45 58.7 51.75 56.17 53.36 56.16 Z " fill-rule="evenodd" fill="rgb(35,31,32)"/><path d=" M 48.37 77.09 L 49.55 86.01 C 47.7 86.25 45.81 86.38 43.94 86.38 C 42.12 86.38 40.29 86.26 38.5 86.03 L 39.65 77.1 C 42.51 77.47 45.49 77.47 48.37 77.09 Z  M 69.8 10.28 C 66.86 8.02 63.64 6.15 60.22 4.73 L 56.76 13.04 C 59.45 14.16 61.99 15.63 64.31 17.41 L 69.8 10.28 L 69.8 10.28 Z  M 4.77 60.31 C 6.2 63.72 8.07 66.94 10.34 69.88 L 17.46 64.38 C 15.67 62.07 14.2 59.53 13.07 56.85 L 4.77 60.31 L 4.77 60.31 Z  M 18.19 77.67 C 21.14 79.93 24.37 81.78 27.79 83.19 L 31.22 74.87 C 28.53 73.76 25.98 72.3 23.66 70.52 L 18.19 77.67 L 18.19 77.67 Z  M 56.78 74.82 L 60.24 83.13 C 63.65 81.71 66.87 79.84 69.81 77.57 L 64.32 70.44 C 62.01 72.23 59.47 73.7 56.78 74.82 Z  M 86.02 38.39 L 77.1 39.56 C 77.29 41 77.38 42.47 77.38 43.94 C 77.38 45.39 77.29 46.86 77.1 48.3 L 86.03 49.46 C 86.27 47.64 86.38 45.78 86.38 43.95 C 86.38 42.08 86.26 40.22 86.02 38.39 Z  M 70.49 64.27 L 77.63 69.75 C 79.89 66.81 81.75 63.58 83.17 60.16 L 74.85 56.72 C 73.74 59.41 72.27 61.95 70.49 64.27 Z  M 83.16 27.69 C 81.74 24.27 79.88 21.05 77.62 18.11 L 70.48 23.59 C 72.26 25.91 73.73 28.45 74.85 31.14 L 83.16 27.69 L 83.16 27.69 Z  M 10.5 43.94 C 10.5 25.5 25.5 10.5 43.94 10.5 C 45.41 10.5 46.89 10.6 48.35 10.79 L 49.52 1.87 C 47.67 1.62 45.8 1.5 43.94 1.5 C 20.54 1.5 1.5 20.54 1.5 43.94 C 1.5 45.8 1.62 47.68 1.86 49.52 L 10.78 48.34 C 10.59 46.89 10.5 45.41 10.5 43.94 Z " fill="rgb(35,31,32)"/></g></svg>