<?xml version="1.0" encoding="UTF-8" standalone="no"?>
<svg xmlns="http://www.w3.org/2000/svg" style="isolation:isolate" viewBox="0 0 87.87 87.87" width="87.87pt" height="87.87pt"><defs><clipPath id="_clipPath_t9fEoll4Gxnz0MZIisMJfxQDC146rR5F"><rect width="87.87" height="87.87"/></clipPath></defs><g clip-path="url(#_clipPath_t9fEoll4Gxnz0MZIisMJfxQDC146rR5F)"><path d=" M 43.94 21.09 C 40.31 21.09 37.37 31.32 37.37 43.94 C 37.37 56.56 40.31 66.79 43.94 66.79 C 47.57 66.79 50.51 56.56 50.51 43.94 C 50.51 31.32 47.57 21.09 43.94 21.09 Z  M 43.94 56.98 C 41.88 56.98 40.21 51.14 40.21 43.94 C 40.21 36.74 41.88 30.9 43.94 30.9 C 46 30.9 47.66 36.74 47.66 43.94 C 47.66 51.14 45.99 56.98 43.94 56.98 Z " fill="rgb(35,31,32)"/><path d=" M 4.73 60.22 C 6.15 63.63 8.01 66.85 10.27 69.79 L 17.41 64.3 C 15.63 61.98 14.16 59.45 13.04 56.76 L 4.73 60.22 L 4.73 60.22 Z " fill="rgb(35,31,32)"/><path d=" M 18.09 77.6 C 21.03 79.86 24.25 81.72 27.66 83.14 L 31.11 74.83 C 28.42 73.71 25.89 72.25 23.57 70.46 L 18.09 77.6 L 18.09 77.6 Z " fill="rgb(35,31,32)"/><path d=" M 43.94 1.5 C 20.53 1.5 1.5 20.54 1.5 43.94 C 1.5 45.8 1.62 47.68 1.86 49.51 L 10.78 48.34 C 10.59 46.89 10.49 45.42 10.49 43.94 C 10.49 25.5 25.49 10.5 43.93 10.5 C 62.37 10.5 77.37 25.5 77.37 43.94 C 77.37 62.38 62.37 77.38 43.93 77.38 C 42.46 77.38 40.98 77.28 39.53 77.09 L 38.36 86.01 C 40.19 86.25 42.07 86.37 43.93 86.37 C 67.33 86.37 86.37 67.33 86.37 43.93 C 86.38 20.54 67.34 1.5 43.94 1.5 Z " fill="rgb(35,31,32)"/><path d=" M 32.28 57.42 L 30.5 55.64 L 55.72 30.42 L 57.5 32.2 L 32.28 57.42 Z " fill="rgb(35,31,32)"/><path d=" M 27.29 60.59 C 26.16 59.46 27.03 56.75 29.24 54.54 C 31.45 52.33 34.16 51.46 35.29 52.59 C 36.43 53.72 35.55 56.43 33.34 58.64 C 31.13 60.85 28.42 61.72 27.29 60.59 Z " fill-rule="evenodd" fill="rgb(35,31,32)"/><path d=" M 52.58 35.29 C 51.45 34.16 52.32 31.44 54.53 29.23 C 56.74 27.02 59.45 26.15 60.59 27.28 C 61.72 28.41 60.85 31.13 58.64 33.34 C 56.43 35.55 53.72 36.42 52.58 35.29 Z " fill-rule="evenodd" fill="rgb(35,31,32)"/></g></svg>