<?xml version="1.0" encoding="UTF-8" standalone="no"?>
<svg xmlns="http://www.w3.org/2000/svg" style="isolation:isolate" viewBox="0 0 87.87 87.87" width="87.87pt" height="87.87pt"><defs><clipPath id="_clipPath_5Sj6KOC3rctOu780xz6AxnG6fOKbQUZC"><rect width="87.87" height="87.87"/></clipPath></defs><g clip-path="url(#_clipPath_5Sj6KOC3rctOu780xz6AxnG6fOKbQUZC)"><path d=" M 43.94 1.5 C 20.54 1.5 1.5 20.54 1.5 43.94 C 1.5 67.34 20.54 86.38 43.94 86.38 C 67.34 86.38 86.38 67.34 86.38 43.94 C 86.38 20.54 67.34 1.5 43.94 1.5 Z  M 43.94 77.38 C 25.5 77.38 10.5 62.38 10.5 43.94 C 10.5 25.5 25.5 10.5 43.94 10.5 C 62.38 10.5 77.38 25.5 77.38 43.94 C 77.38 62.37 62.38 77.38 43.94 77.38 Z " fill="rgb(35,31,32)"/><path d=" M 43.94 21.09 C 40.31 21.09 37.37 31.32 37.37 43.94 C 37.37 56.56 40.31 66.79 43.94 66.79 C 47.57 66.79 50.51 56.56 50.51 43.94 C 50.51 31.32 47.57 21.09 43.94 21.09 Z  M 43.94 56.98 C 41.88 56.98 40.21 51.14 40.21 43.94 C 40.21 36.74 41.88 30.9 43.94 30.9 C 46 30.9 47.66 36.74 47.66 43.94 C 47.66 51.14 45.99 56.98 43.94 56.98 Z " fill="rgb(35,31,32)"/><path d=" M 32.28 57.42 L 30.5 55.64 L 55.72 30.42 L 57.5 32.2 L 32.28 57.42 Z " fill="rgb(35,31,32)"/><path d=" M 27.29 60.59 C 26.16 59.46 27.03 56.75 29.24 54.54 C 31.45 52.33 34.16 51.46 35.29 52.59 C 36.43 53.72 35.55 56.43 33.34 58.64 C 31.13 60.85 28.42 61.72 27.29 60.59 Z " fill-rule="evenodd" fill="rgb(35,31,32)"/><path d=" M 52.58 35.29 C 51.45 34.16 52.32 31.44 54.53 29.23 C 56.74 27.02 59.45 26.15 60.59 27.28 C 61.72 28.41 60.85 31.13 58.64 33.34 C 56.43 35.55 53.72 36.42 52.58 35.29 Z " fill-rule="evenodd" fill="rgb(35,31,32)"/><path d=" M 57.37 55.64 L 55.59 57.42 L 30.37 32.2 L 32.15 30.42 L 57.37 55.64 Z " fill="rgb(35,31,32)"/><path d=" M 60.59 60.59 C 61.72 59.46 60.85 56.75 58.64 54.54 C 56.43 52.33 53.72 51.46 52.58 52.59 C 51.45 53.72 52.32 56.43 54.53 58.64 C 56.74 60.85 59.45 61.72 60.59 60.59 Z " fill-rule="evenodd" fill="rgb(35,31,32)"/><path d=" M 35.29 35.29 C 36.42 34.16 35.55 31.44 33.34 29.23 C 31.13 27.02 28.42 26.15 27.29 27.28 C 26.16 28.41 27.03 31.13 29.24 33.34 C 31.44 35.55 34.16 36.42 35.29 35.29 Z " fill-rule="evenodd" fill="rgb(35,31,32)"/></g></svg>