<?xml version="1.0" encoding="UTF-8" standalone="no"?>
<svg
   viewBox="0 0 87.87 87.87"
   width="117.16"
   height="117.16"
   version="1.1"
   id="svg3"
   xmlns="http://www.w3.org/2000/svg">
  <defs
     id="defs1">
    <clipPath
       clipPathUnits="userSpaceOnUse"
       id="clipPath1483">
      <path
         d="M 0,0 H 612.283 V 425.197 H 0 Z"
         transform="translate(-58.430001,-139.62301)"
         id="path1483" />
    </clipPath>
    <clipPath
       clipPathUnits="userSpaceOnUse"
       id="clipPath1582">
      <path
         d="M 0,0 H 612.283 V 425.197 H 0 Z"
         transform="translate(-55.983501,-159.4481)"
         id="path1582" />
    </clipPath>
    <clipPath
       clipPathUnits="userSpaceOnUse"
       id="clipPath1584">
      <path
         d="M 0,0 H 612.283 V 425.197 H 0 Z"
         transform="translate(-63.922252,-123.6029)"
         id="path1584" />
    </clipPath>
    <clipPath
       clipPathUnits="userSpaceOnUse"
       id="clipPath1586">
      <path
         d="M 0,0 H 612.283 V 425.197 H 0 Z"
         transform="translate(-64.211002,-139.8571)"
         id="path1586" />
    </clipPath>
  </defs>
  <path
     id="path1581"
     d="m 0,0 c -15.239,0 -27.637,-12.397 -27.637,-27.637 0,-15.237 12.398,-27.636 27.637,-27.636 15.24,0 27.638,12.399 27.638,27.636 C 27.638,-12.397 15.24,0 0,0 m 0,-49.412 c -12.007,0 -21.776,9.769 -21.776,21.775 0,12.008 9.769,21.776 21.776,21.776 12.008,0 21.778,-9.768 21.778,-21.776 0,-12.006 -9.77,-21.775 -21.778,-21.775"
     style="fill:#000000;fill-opacity:1;fill-rule:nonzero;stroke:none"
     transform="matrix(1.5384779,0,0,-1.5385336,43.936237,1.4173228)"
     clip-path="url(#clipPath1582)" />
  <path
     id="path1583"
     d="M 0,0 C -0.143,0 -0.287,-0.017 -0.427,-0.051 -0.6,-0.093 -0.757,-0.165 -0.904,-0.249 -1.157,0.47 -1.563,1.132 -2.114,1.691 -3.096,2.683 -4.405,3.234 -5.8,3.241 l -4.304,0.033 -0.004,-0.776 -1.864,0.004 0.005,0.77 -5.703,0.037 -0.032,-5.587 6.656,-0.037 c 0.077,-1.261 0.603,-2.437 1.499,-3.343 0.983,-0.994 2.291,-1.545 3.688,-1.553 h 0.03 c 2.364,0 4.37,1.589 5.008,3.755 0.249,-0.125 0.526,-0.197 0.819,-0.197 0.143,0 0.287,0.017 0.428,0.051 0.474,0.113 0.875,0.405 1.13,0.821 0.255,0.416 0.332,0.907 0.219,1.381 C 1.577,-0.576 0.847,0 0,0 M 0.915,-2.388 C 0.766,-2.633 0.529,-2.805 0.25,-2.872 c -0.327,-0.077 -0.656,0.01 -0.904,0.202 0.028,0.216 0.048,0.434 0.049,0.656 0.002,0.34 -0.029,0.674 -0.091,1.002 0.125,0.106 0.273,0.189 0.443,0.23 0.084,0.02 0.168,0.031 0.253,0.031 0.498,0 0.927,-0.34 1.044,-0.825 0.066,-0.28 0.021,-0.568 -0.129,-0.812"
     style="fill:#000000;fill-opacity:1;fill-rule:nonzero;stroke:none"
     transform="matrix(1.5384779,0,0,-1.5385336,56.149829,56.566367)"
     clip-path="url(#clipPath1584)" />
  <path
     id="path1585"
     d="m 0,0 c -0.153,4.078 -3.772,7.343 -8.226,7.343 -4.455,0 -8.074,-3.265 -8.227,-7.343 -4.279,-0.678 -7.12,-1.87 -7.12,-3.227 0,-2.112 6.871,-3.823 15.347,-3.823 8.475,0 15.347,1.711 15.347,3.823 C 7.121,-1.87 4.279,-0.678 0,0 M -6.325,0.493 C -6.455,0.286 -6.701,0.148 -7.033,0.198 -7.051,0.2 -7.063,0.216 -7.06,0.234 c 10e-4,0.007 0.003,0.014 0.008,0.019 0.047,0.061 0.069,0.123 0.069,0.18 0,0.049 -0.015,0.094 -0.044,0.132 -0.029,0.037 -0.071,0.069 -0.123,0.088 -0.076,0.029 -0.174,0.033 -0.285,0 -0.127,-0.038 -0.224,-0.136 -0.293,-0.261 -0.083,-0.151 -0.123,-0.34 -0.123,-0.506 0,-0.092 0.01,-0.182 0.029,-0.265 V -0.38 c 0.019,-0.085 0.047,-0.163 0.083,-0.231 0.055,-0.106 0.134,-0.17 0.215,-0.2 0.061,-0.024 0.123,-0.031 0.179,-0.023 0.054,0.007 0.103,0.028 0.138,0.058 0.028,0.025 0.048,0.058 0.051,0.092 0.002,0.019 0.017,0.032 0.035,0.03 0.004,-0.001 0.009,-0.001 0.013,-0.002 0.076,-0.012 0.132,-0.058 0.166,-0.12 0.032,-0.06 0.045,-0.136 0.036,-0.214 v -0.001 c 0,-0.008 -0.001,-0.015 -0.003,-0.023 -0.018,-0.109 -0.065,-0.191 -0.132,-0.251 -0.054,-0.049 -0.122,-0.081 -0.194,-0.097 -0.072,-0.016 -0.149,-0.017 -0.225,-0.005 -0.137,0.023 -0.271,0.089 -0.362,0.192 -0.019,0.021 -0.036,0.046 -0.054,0.071 -0.025,-0.183 -0.048,-0.315 -0.089,-0.435 -0.046,-0.137 -0.115,-0.255 -0.236,-0.414 -0.01,-0.015 -0.031,-0.017 -0.044,-0.007 -0.003,0.002 -0.005,0.005 -0.006,0.007 -0.121,0.159 -0.191,0.277 -0.237,0.414 -0.04,0.12 -0.064,0.252 -0.089,0.435 -0.018,-0.025 -0.035,-0.05 -0.053,-0.071 -0.091,-0.103 -0.226,-0.169 -0.363,-0.192 -0.076,-0.012 -0.153,-0.011 -0.225,0.005 -0.072,0.016 -0.14,0.048 -0.194,0.097 -0.066,0.06 -0.114,0.142 -0.132,0.251 -10e-4,0.008 -0.002,0.015 -0.002,0.023 l -0.001,0.001 c -0.008,0.078 0.004,0.154 0.037,0.214 0.034,0.062 0.089,0.108 0.166,0.12 0.004,0.001 0.008,0.001 0.012,0.002 0.018,0.002 0.033,-0.011 0.035,-0.03 0.004,-0.034 0.023,-0.067 0.052,-0.092 0.034,-0.03 0.083,-0.051 0.137,-0.058 0.057,-0.008 0.119,-0.001 0.179,0.023 0.081,0.03 0.16,0.094 0.215,0.2 0.036,0.068 0.065,0.146 0.084,0.231 v 0.001 c 0.018,0.083 0.028,0.173 0.028,0.265 0,0.166 -0.04,0.355 -0.123,0.506 -0.069,0.125 -0.165,0.223 -0.292,0.261 -0.111,0.033 -0.209,0.029 -0.285,0 C -9.355,0.634 -9.397,0.602 -9.426,0.565 -9.453,0.527 -9.47,0.482 -9.47,0.433 -9.469,0.376 -9.448,0.314 -9.4,0.253 -9.396,0.248 -9.393,0.241 -9.392,0.234 -9.389,0.216 -9.402,0.2 -9.419,0.198 c -0.332,-0.05 -0.579,0.088 -0.709,0.295 -0.061,0.095 -0.096,0.205 -0.104,0.317 -0.008,0.112 0.012,0.227 0.063,0.331 0.111,0.23 0.369,0.41 0.805,0.41 0.231,0 0.445,-0.104 0.622,-0.28 -0.023,0.112 -0.044,0.222 -0.059,0.32 -0.019,0.133 -0.029,0.25 -0.022,0.338 0.018,0.258 0.068,0.452 0.161,0.638 0.091,0.186 0.226,0.361 0.412,0.581 0.011,0.013 0.031,0.015 0.045,0.003 C -8.204,3.15 -8.203,3.149 -8.201,3.147 -8.016,2.928 -7.882,2.753 -7.79,2.567 -7.697,2.381 -7.647,2.187 -7.629,1.929 -7.622,1.841 -7.632,1.724 -7.651,1.591 -7.666,1.493 -7.688,1.383 -7.71,1.272 c 0.177,0.176 0.391,0.279 0.622,0.279 0.434,0 0.694,-0.18 0.804,-0.41 C -6.233,1.037 -6.213,0.922 -6.221,0.81 -6.228,0.698 -6.264,0.588 -6.325,0.493"
     style="fill:#000000;fill-opacity:1;fill-rule:nonzero;stroke:none"
     transform="matrix(1.5384779,0,0,-1.5385336,56.594065,31.55873)"
     clip-path="url(#clipPath1586)" />
</svg>
