<?xml version="1.0" encoding="UTF-8" standalone="no"?>
<svg
   viewBox="0 0 87.87 87.87"
   width="117.16"
   height="117.16"
   version="1.1"
   id="svg3"
   xmlns="http://www.w3.org/2000/svg">
  <defs
     id="defs1">
    <clipPath
       clipPathUnits="userSpaceOnUse"
       id="clipPath1572-5">
      <path
         d="M 0,0 H 612.283 V 425.197 H 0 Z"
         transform="translate(-30.455001,-242.5859)"
         id="path1572-5" />
    </clipPath>
    <clipPath
       clipPathUnits="userSpaceOnUse"
       id="clipPath1574-6">
      <path
         d="M 0,0 H 612.283 V 425.197 H 0 Z"
         transform="translate(-39.155001,-231.26371)"
         id="path1574-8" />
    </clipPath>
    <clipPath
       clipPathUnits="userSpaceOnUse"
       id="clipPath1576-0">
      <path
         d="M 0,0 H 612.283 V 425.197 H 0 Z"
         transform="translate(-55.982751,-280.82281)"
         id="path1576-7" />
    </clipPath>
    <clipPath
       clipPathUnits="userSpaceOnUse"
       id="clipPath1580-5">
      <path
         d="M 0,0 H 612.283 V 425.197 H 0 Z"
         transform="translate(-64.210252,-261.31081)"
         id="path1580-9" />
    </clipPath>
  </defs>
  <path
     id="path1571"
     d="M 0,0 C 0.923,-2.221 2.138,-4.318 3.609,-6.232 L 8.256,-2.66 C 7.096,-1.151 6.138,0.501 5.412,2.25 Z"
     style="fill:#000000;fill-opacity:1;fill-rule:nonzero;stroke:none"
     transform="matrix(1.5384779,0,0,-1.5385893,4.6608179,60.248216)"
     clip-path="url(#clipPath1572-5)" />
  <path
     id="path1573"
     d="M 0,0 C 1.914,-1.47 4.013,-2.685 6.235,-3.607 L 8.482,1.805 C 6.732,2.531 5.08,3.487 3.571,4.647 Z"
     style="fill:#000000;fill-opacity:1;fill-rule:nonzero;stroke:none"
     transform="matrix(1.5384779,0,0,-1.5385893,18.045575,77.668423)"
     clip-path="url(#clipPath1574-6)" />
  <path
     id="path1575"
     d="m 0,0 c -15.238,0 -27.636,-12.398 -27.636,-27.637 0,-1.212 0.08,-2.435 0.236,-3.629 l 5.811,0.764 c -0.123,0.943 -0.187,1.906 -0.187,2.865 0,12.007 9.77,21.776 21.776,21.776 12.009,0 21.778,-9.769 21.778,-21.776 0,-12.004 -9.769,-21.773 -21.778,-21.773 -0.958,0 -1.923,0.063 -2.867,0.187 l -0.763,-5.811 c 1.196,-0.157 2.418,-0.237 3.63,-0.237 15.241,0 27.639,12.398 27.639,27.634 C 27.639,-12.398 15.241,0 0,0"
     style="fill:#000000;fill-opacity:1;fill-rule:nonzero;stroke:none"
     transform="matrix(1.5384779,0,0,-1.5385893,43.934698,1.4173228)"
     clip-path="url(#clipPath1576-0)" />
  <path
     id="path1577"
     d="m 48.887059,46.197044 -19.475593,19.475463 2.061561,2.061709 19.474054,-19.477 z"
     style="fill:#000000;fill-opacity:1;fill-rule:nonzero;stroke:none;stroke-width:1.53853" />
  <path
     id="path1578"
     d="M 43.111997,58.575 58.462931,64.404715 52.633638,49.052671 Z"
     style="fill:#000000;fill-opacity:1;fill-rule:nonzero;stroke:none;stroke-width:1.53853" />
  <path
     id="path1579"
     d="m 0,0 c -0.153,4.078 -3.772,7.343 -8.226,7.343 -4.455,0 -8.074,-3.265 -8.227,-7.343 -4.279,-0.679 -7.12,-1.87 -7.12,-3.227 0,-2.112 6.871,-3.823 15.347,-3.823 8.476,0 15.347,1.711 15.347,3.823 C 7.121,-1.87 4.279,-0.679 0,0 M -6.325,0.493 C -6.455,0.286 -6.701,0.147 -7.033,0.198 -7.051,0.2 -7.063,0.216 -7.06,0.234 c 10e-4,0.007 0.003,0.014 0.008,0.019 0.047,0.061 0.069,0.123 0.069,0.18 0,0.049 -0.015,0.093 -0.044,0.132 C -7.056,0.602 -7.098,0.634 -7.15,0.653 -7.226,0.682 -7.324,0.686 -7.435,0.652 -7.562,0.615 -7.659,0.517 -7.728,0.392 -7.811,0.241 -7.851,0.052 -7.851,-0.114 c 0,-0.092 0.01,-0.182 0.029,-0.265 V -0.38 c 0.019,-0.085 0.047,-0.163 0.083,-0.231 0.055,-0.106 0.134,-0.17 0.215,-0.2 0.061,-0.024 0.123,-0.031 0.179,-0.023 0.054,0.007 0.103,0.028 0.138,0.058 0.028,0.025 0.048,0.057 0.051,0.092 0.002,0.019 0.017,0.032 0.035,0.03 0.004,-0.001 0.009,-0.001 0.013,-0.002 0.076,-0.012 0.132,-0.058 0.166,-0.121 0.032,-0.059 0.045,-0.135 0.037,-0.213 v -0.001 c -10e-4,-0.008 -0.002,-0.015 -0.004,-0.023 -0.018,-0.109 -0.065,-0.191 -0.131,-0.251 -0.055,-0.049 -0.123,-0.081 -0.195,-0.097 -0.072,-0.016 -0.149,-0.017 -0.225,-0.005 -0.137,0.023 -0.271,0.089 -0.362,0.192 -0.019,0.02 -0.036,0.046 -0.054,0.071 -0.025,-0.183 -0.047,-0.315 -0.089,-0.435 -0.046,-0.137 -0.115,-0.255 -0.235,-0.414 -0.011,-0.015 -0.032,-0.018 -0.045,-0.007 -0.003,0.002 -0.005,0.005 -0.006,0.007 -0.121,0.159 -0.191,0.277 -0.237,0.414 -0.04,0.12 -0.064,0.252 -0.089,0.435 -0.018,-0.025 -0.035,-0.051 -0.053,-0.071 -0.091,-0.103 -0.226,-0.169 -0.363,-0.192 -0.076,-0.012 -0.153,-0.011 -0.224,0.005 -0.073,0.016 -0.141,0.048 -0.195,0.097 -0.066,0.06 -0.114,0.142 -0.132,0.251 -10e-4,0.008 -0.002,0.015 -0.002,0.023 l -0.001,0.001 c -0.008,0.078 0.004,0.154 0.037,0.213 0.034,0.063 0.089,0.109 0.166,0.121 0.004,0.001 0.008,0.001 0.012,0.002 0.018,0.002 0.033,-0.011 0.035,-0.03 0.004,-0.035 0.023,-0.067 0.052,-0.092 0.034,-0.03 0.083,-0.051 0.137,-0.058 0.057,-0.008 0.119,-0.001 0.179,0.023 0.082,0.03 0.16,0.094 0.216,0.2 0.035,0.068 0.064,0.146 0.083,0.231 v 0.001 c 0.018,0.083 0.028,0.173 0.028,0.265 0,0.166 -0.04,0.355 -0.123,0.506 -0.069,0.125 -0.165,0.223 -0.292,0.26 -0.111,0.034 -0.209,0.03 -0.285,0.001 C -9.355,0.634 -9.397,0.602 -9.426,0.565 -9.453,0.526 -9.469,0.482 -9.469,0.433 c 0,-0.057 0.021,-0.119 0.069,-0.18 0.004,-0.005 0.007,-0.012 0.008,-0.019 0.003,-0.018 -0.01,-0.034 -0.027,-0.036 -0.332,-0.051 -0.579,0.088 -0.709,0.295 -0.061,0.095 -0.096,0.205 -0.104,0.317 -0.008,0.112 0.012,0.227 0.063,0.331 0.111,0.23 0.369,0.41 0.805,0.41 0.231,0 0.445,-0.104 0.622,-0.28 -0.023,0.112 -0.044,0.222 -0.059,0.32 -0.019,0.133 -0.029,0.25 -0.022,0.338 0.018,0.258 0.068,0.452 0.161,0.638 0.092,0.186 0.226,0.361 0.412,0.581 0.011,0.013 0.031,0.015 0.045,0.003 C -8.204,3.15 -8.203,3.149 -8.201,3.147 -8.015,2.928 -7.882,2.753 -7.79,2.567 -7.697,2.381 -7.647,2.187 -7.629,1.929 -7.622,1.841 -7.632,1.724 -7.651,1.591 -7.666,1.493 -7.687,1.383 -7.71,1.272 c 0.177,0.176 0.391,0.279 0.622,0.279 0.435,0 0.694,-0.18 0.805,-0.41 0.05,-0.104 0.07,-0.219 0.062,-0.331 C -6.228,0.698 -6.264,0.588 -6.325,0.493"
     style="fill:#000000;fill-opacity:1;fill-rule:nonzero;stroke:none"
     transform="matrix(1.5384779,0,0,-1.5385893,56.592526,31.438277)"
     clip-path="url(#clipPath1580-5)" />
</svg>
