<?xml version="1.0" encoding="UTF-8" standalone="no"?>
<svg
   viewBox="0 0 87.87 87.87"
   width="117.16"
   height="117.16"
   version="1.1"
   id="svg3"
   xmlns="http://www.w3.org/2000/svg">
  <defs
     id="defs1">
    <clipPath
       clipPathUnits="userSpaceOnUse"
       id="clipPath1485">
      <path
         d="M 0,0 H 612.283 V 425.197 H 0 Z"
         transform="translate(-53.184501,-344.95961)"
         id="path1485" />
    </clipPath>
    <clipPath
       clipPathUnits="userSpaceOnUse"
       id="clipPath1487">
      <path
         d="M 0,0 H 612.283 V 425.197 H 0 Z"
         transform="translate(-72.824752,-388.47461)"
         id="path1487" />
    </clipPath>
    <clipPath
       clipPathUnits="userSpaceOnUse"
       id="clipPath1489">
      <path
         d="M 0,0 H 612.283 V 425.197 H 0 Z"
         transform="translate(-30.479751,-355.89921)"
         id="path1489" />
    </clipPath>
    <clipPath
       clipPathUnits="userSpaceOnUse"
       id="clipPath1491">
      <path
         d="M 0,0 H 612.283 V 425.197 H 0 Z"
         transform="translate(-39.215001,-344.58941)"
         id="path1491" />
    </clipPath>
    <clipPath
       clipPathUnits="userSpaceOnUse"
       id="clipPath1493">
      <path
         d="M 0,0 H 612.283 V 425.197 H 0 Z"
         transform="translate(-64.349002,-346.44651)"
         id="path1493" />
    </clipPath>
    <clipPath
       clipPathUnits="userSpaceOnUse"
       id="clipPath1495">
      <path
         d="M 0,0 H 612.283 V 425.197 H 0 Z"
         transform="translate(-83.387752,-370.16931)"
         id="path1495" />
    </clipPath>
    <clipPath
       clipPathUnits="userSpaceOnUse"
       id="clipPath1497">
      <path
         d="M 0,0 H 612.283 V 425.197 H 0 Z"
         transform="translate(-73.275502,-353.31981)"
         id="path1497" />
    </clipPath>
    <clipPath
       clipPathUnits="userSpaceOnUse"
       id="clipPath1499">
      <path
         d="M 0,0 H 612.283 V 425.197 H 0 Z"
         transform="translate(-81.524752,-377.13811)"
         id="path1499" />
    </clipPath>
    <clipPath
       clipPathUnits="userSpaceOnUse"
       id="clipPath1501">
      <path
         d="M 0,0 H 612.283 V 425.197 H 0 Z"
         transform="translate(-34.207251,-366.55981)"
         id="path1501" />
    </clipPath>
    <clipPath
       clipPathUnits="userSpaceOnUse"
       id="clipPath1503">
      <path
         d="M 0,0 H 612.283 V 425.197 H 0 Z"
         transform="translate(-65.198002,-367.70201)"
         id="path1503" />
    </clipPath>
  </defs>
  <path
     id="path1484"
     d="m 0,0 -0.745,-5.813 c 1.167,-0.15 2.359,-0.226 3.544,-0.226 1.221,0 2.451,0.081 3.656,0.24 L 5.687,0.011 C 3.814,-0.237 1.871,-0.24 0,0"
     style="fill:#000000;fill-opacity:1;fill-rule:nonzero;stroke:none"
     transform="matrix(1.5384636,0,0,-1.5384443,39.630074,77.166025)"
     clip-path="url(#clipPath1485)" />
  <path
     id="path1486"
     d="m 0,0 c -1.914,1.474 -4.014,2.69 -6.24,3.615 l -2.25,-5.412 c 1.753,-0.728 3.406,-1.687 4.915,-2.847 z"
     style="fill:#000000;fill-opacity:1;fill-rule:nonzero;stroke:none"
     transform="matrix(1.5384636,0,0,-1.5384443,69.845887,10.220593)"
     clip-path="url(#clipPath1487)" />
  <path
     id="path1488"
     d="m 0,0 c 0.929,-2.222 2.148,-4.317 3.626,-6.23 l 4.637,3.584 C 7.098,-1.138 6.138,0.511 5.407,2.26 Z"
     style="fill:#000000;fill-opacity:1;fill-rule:nonzero;stroke:none"
     transform="matrix(1.5384636,0,0,-1.5384443,4.6996314,60.336051)"
     clip-path="url(#clipPath1489)" />
  <path
     id="path1490"
     d="m 0,0 c 1.919,-1.468 4.023,-2.677 6.25,-3.596 l 2.232,5.42 C 6.728,2.546 5.072,3.499 3.56,4.656 Z"
     style="fill:#000000;fill-opacity:1;fill-rule:nonzero;stroke:none"
     transform="matrix(1.5384636,0,0,-1.5384443,18.138501,77.735554)"
     clip-path="url(#clipPath1491)" />
  <path
     id="path1492"
     d="m 0,0 2.253,-5.411 c 2.223,0.926 4.32,2.142 6.234,3.618 L 4.911,2.849 C 3.402,1.688 1.75,0.729 0,0"
     style="fill:#000000;fill-opacity:1;fill-rule:nonzero;stroke:none"
     transform="matrix(1.5384636,0,0,-1.5384443,56.806263,74.878517)"
     clip-path="url(#clipPath1493)" />
  <path
     id="path1494"
     d="m 0,0 -5.811,-0.759 c 0.122,-0.938 0.184,-1.897 0.184,-2.851 0,-0.947 -0.062,-1.9 -0.183,-2.837 L 0.003,-7.2 c 0.153,1.186 0.231,2.394 0.231,3.59 C 0.234,-2.404 0.155,-1.189 0,0"
     style="fill:#000000;fill-opacity:1;fill-rule:nonzero;stroke:none"
     transform="matrix(1.5384636,0,0,-1.5384443,86.096694,38.382291)"
     clip-path="url(#clipPath1495)" />
  <path
     id="path1496"
     d="M 0,0 4.65,-3.568 C 6.122,-1.651 7.334,0.45 8.256,2.677 L 2.84,4.917 C 2.115,3.165 1.159,1.51 0,0"
     style="fill:#000000;fill-opacity:1;fill-rule:nonzero;stroke:none"
     transform="matrix(1.5384636,0,0,-1.5384443,70.539364,64.304311)"
     clip-path="url(#clipPath1497)" />
  <path
     id="path1498"
     d="M 0,0 C -0.923,2.226 -2.137,4.324 -3.608,6.24 L -8.257,2.671 c 1.16,-1.51 2.116,-3.164 2.844,-4.917 z"
     style="fill:#000000;fill-opacity:1;fill-rule:nonzero;stroke:none"
     transform="matrix(1.5384636,0,0,-1.5384443,83.230537,27.661177)"
     clip-path="url(#clipPath1499)" />
  <path
     id="path1500"
     d="m 0,0 c 0,12.007 9.77,21.776 21.776,21.776 0.959,0 1.923,-0.064 2.868,-0.187 l 0.764,5.812 C 24.211,27.557 22.99,27.637 21.776,27.637 6.538,27.637 -5.861,15.239 -5.861,0 c 0,-1.214 0.08,-2.436 0.237,-3.632 l 5.811,0.766 C 0.064,-1.924 0,-0.96 0,0"
     style="fill:#000000;fill-opacity:1;fill-rule:nonzero;stroke:none"
     transform="matrix(1.5384636,0,0,-1.5384443,10.434262,43.935309)"
     clip-path="url(#clipPath1501)" />
  <path
     id="path1502"
     d="m 0,0 c -0.165,4.407 -4.076,7.935 -8.889,7.935 -4.813,0 -8.723,-3.528 -8.888,-7.935 -4.624,-0.733 -7.694,-2.02 -7.694,-3.487 0,-2.281 7.424,-4.131 16.582,-4.131 9.159,0 16.583,1.85 16.583,4.131 C 7.694,-2.02 4.624,-0.733 0,0 M -6.834,0.533 C -6.975,0.309 -7.24,0.159 -7.6,0.214 c -0.019,0.002 -0.032,0.02 -0.029,0.039 10e-4,0.008 0.004,0.015 0.009,0.02 0.051,0.066 0.074,0.134 0.074,0.194 0,0.054 -0.016,0.102 -0.047,0.143 C -7.624,0.651 -7.669,0.685 -7.726,0.706 -7.808,0.737 -7.913,0.741 -8.034,0.705 -8.171,0.665 -8.276,0.558 -8.35,0.424 -8.44,0.261 -8.483,0.056 -8.483,-0.123 c 0,-0.1 0.01,-0.196 0.031,-0.286 V -0.41 c 0.021,-0.092 0.051,-0.177 0.089,-0.25 0.06,-0.114 0.145,-0.184 0.233,-0.217 0.066,-0.025 0.133,-0.032 0.193,-0.024 0.059,0.008 0.111,0.03 0.15,0.063 0.03,0.027 0.051,0.062 0.055,0.099 0.002,0.021 0.018,0.034 0.038,0.032 0.004,-0.001 0.009,-0.001 0.013,-0.002 0.083,-0.013 0.143,-0.062 0.18,-0.13 0.035,-0.065 0.048,-0.147 0.039,-0.231 v -10e-4 c -0.001,-0.008 -0.002,-0.016 -0.003,-0.025 -0.02,-0.118 -0.071,-0.206 -0.142,-0.271 -0.059,-0.052 -0.133,-0.087 -0.211,-0.104 -0.077,-0.018 -0.16,-0.019 -0.242,-0.006 -0.149,0.025 -0.294,0.096 -0.392,0.207 -0.021,0.023 -0.039,0.051 -0.058,0.078 -0.027,-0.198 -0.051,-0.341 -0.096,-0.471 -0.05,-0.147 -0.124,-0.276 -0.255,-0.447 -0.011,-0.016 -0.034,-0.019 -0.048,-0.007 -0.003,10e-4 -0.005,0.004 -0.007,0.007 -0.13,0.171 -0.205,0.3 -0.256,0.447 -0.043,0.13 -0.068,0.273 -0.095,0.471 -0.02,-0.027 -0.038,-0.055 -0.058,-0.078 -0.099,-0.111 -0.244,-0.182 -0.392,-0.207 -0.082,-0.013 -0.165,-0.012 -0.243,0.006 -0.078,0.017 -0.151,0.052 -0.21,0.104 -0.071,0.065 -0.123,0.153 -0.142,0.271 -0.001,0.009 -0.003,0.017 -0.003,0.025 l -0.001,10e-4 c -0.009,0.084 0.005,0.166 0.041,0.231 0.036,0.068 0.095,0.117 0.178,0.13 0.005,0.001 0.009,0.001 0.014,0.002 0.019,0.002 0.035,-0.011 0.037,-0.032 0.005,-0.037 0.025,-0.072 0.056,-0.099 0.037,-0.033 0.09,-0.055 0.149,-0.063 0.061,-0.008 0.129,-0.001 0.193,0.024 0.088,0.033 0.173,0.103 0.233,0.217 0.039,0.073 0.069,0.158 0.09,0.25 v 0.001 c 0.02,0.09 0.031,0.186 0.031,0.286 0,0.179 -0.044,0.384 -0.134,0.547 -0.074,0.134 -0.178,0.241 -0.315,0.281 -0.12,0.036 -0.225,0.032 -0.308,0.001 -0.057,-0.021 -0.103,-0.055 -0.134,-0.096 -0.03,-0.041 -0.047,-0.089 -0.047,-0.143 10e-4,-0.06 0.023,-0.128 0.075,-0.194 0.004,-0.005 0.008,-0.012 0.009,-0.02 0.003,-0.019 -0.011,-0.037 -0.03,-0.039 -0.358,-0.055 -0.625,0.095 -0.766,0.319 -0.065,0.103 -0.103,0.221 -0.112,0.342 -0.008,0.122 0.013,0.245 0.068,0.358 0.121,0.248 0.399,0.443 0.87,0.443 0.25,0 0.481,-0.112 0.672,-0.303 -0.025,0.121 -0.047,0.24 -0.064,0.346 -0.02,0.144 -0.031,0.27 -0.024,0.365 0.02,0.279 0.075,0.489 0.175,0.69 0.098,0.2 0.243,0.39 0.445,0.627 0.012,0.015 0.033,0.017 0.048,0.004 C -8.865,3.404 -8.864,3.402 -8.862,3.4 -8.661,3.164 -8.517,2.974 -8.418,2.774 -8.317,2.573 -8.263,2.363 -8.244,2.084 -8.236,1.989 -8.247,1.863 -8.267,1.719 -8.283,1.613 -8.306,1.494 -8.331,1.374 c 0.192,0.191 0.422,0.302 0.672,0.302 0.47,0 0.75,-0.195 0.87,-0.443 C -6.734,1.12 -6.713,0.997 -6.722,0.875 -6.73,0.754 -6.768,0.636 -6.834,0.533"
     style="fill:#000000;fill-opacity:1;fill-rule:nonzero;stroke:none"
     transform="matrix(1.5384636,0,0,-1.5384443,58.112416,42.178092)"
     clip-path="url(#clipPath1503)" />
</svg>
