<?xml version="1.0" encoding="UTF-8" standalone="no"?>
<svg
   viewBox="0 0 87.87 87.87"
   width="117.16"
   height="117.16"
   version="1.1"
   id="svg3"
   xmlns="http://www.w3.org/2000/svg">
  <defs
     id="defs1">
    <clipPath
       clipPathUnits="userSpaceOnUse"
       id="clipPath38913">
      <path
         d="m 28.346,252.993 h 55.275 v 55.275 H 28.346 Z"
         transform="translate(-31.504001,-270.37141)"
         id="path38913" />
    </clipPath>
    <clipPath
       clipPathUnits="userSpaceOnUse"
       id="clipPath38915">
      <path
         d="m 28.346,252.993 h 55.275 v 55.275 H 28.346 Z"
         transform="translate(-39.923501,-259.41451)"
         id="path38915" />
    </clipPath>
    <clipPath
       clipPathUnits="userSpaceOnUse"
       id="clipPath38917">
      <path
         d="m 28.346,252.993 h 55.275 v 55.275 H 28.346 Z"
         transform="translate(-56.208251,-307.37501)"
         id="path38917" />
    </clipPath>
    <clipPath
       clipPathUnits="userSpaceOnUse"
       id="clipPath38919">
      <path
         d="m 28.346,252.993 h 55.275 v 55.275 H 28.346 Z"
         transform="translate(-68.025252,-276.8249)"
         id="path38919" />
    </clipPath>
    <clipPath
       clipPathUnits="userSpaceOnUse"
       id="clipPath38921">
      <path
         d="m 28.346,252.993 h 55.275 v 55.275 H 28.346 Z"
         transform="translate(-57.129251,-292.4168)"
         id="path38921" />
    </clipPath>
  </defs>
  <g
     id="g38967"
     transform="matrix(1.1922967,0,0,1.1924082,-112243.46,-185.90522)">
    <path
       id="path38912"
       d="m 0,0 c 0.894,-2.149 2.069,-4.179 3.493,-6.031 l 4.496,3.457 C 6.867,-1.114 5.94,0.485 5.237,2.177 Z"
       style="fill:#000000;fill-opacity:1;fill-rule:nonzero;stroke:none"
       transform="matrix(1.3333333,0,0,-1.3333333,94144.456,206.43413)"
       clip-path="url(#clipPath38913)" />
    <path
       id="path38914"
       d="M 0,0 C 1.852,-1.423 3.883,-2.599 6.034,-3.49 L 8.208,1.747 C 6.515,2.449 4.916,3.375 3.456,4.498 Z"
       style="fill:#000000;fill-opacity:1;fill-rule:nonzero;stroke:none"
       transform="matrix(1.3333333,0,0,-1.3333333,94155.682,221.04333)"
       clip-path="url(#clipPath38915)" />
    <path
       id="path38916"
       d="m 0,0 c -14.746,0 -26.745,-11.998 -26.745,-26.745 0,-1.174 0.078,-2.357 0.229,-3.512 l 5.624,0.74 c -0.12,0.911 -0.181,1.843 -0.181,2.772 0,11.619 9.454,21.073 21.073,21.073 11.622,0 21.076,-9.454 21.076,-21.073 0,-11.617 -9.454,-21.072 -21.076,-21.072 -0.927,0 -1.861,0.062 -2.774,0.182 l -0.739,-5.625 c 1.157,-0.151 2.34,-0.228 3.513,-0.228 14.75,0 26.748,11.998 26.748,26.743 C 26.748,-11.998 14.75,0 0,0"
       style="fill:#000000;fill-opacity:1;fill-rule:nonzero;stroke:none"
       transform="matrix(1.3333333,0,0,-1.3333333,94177.395,157.096)"
       clip-path="url(#clipPath38917)" />
    <path
       id="path38918"
       d="m 0,0 c -1.583,-0.098 -3.664,-1.679 -5.672,-2.588 -2.46,-1.113 -6.292,-0.218 -6.292,-0.218 0.59,0.276 2.991,0.848 3.475,1.062 2.57,1.13 2.354,3.489 1.129,3.469 C -8.978,1.697 -9.927,1.3 -13.154,0.86 c -2.447,-0.333 -5.34,-0.21 -6.728,-0.74 -1.959,-0.749 -5.116,-5.784 -5.116,-5.784 l 4.879,-4.728 c 0,0 3.021,2.974 4.491,2.974 3.347,0 3.483,0.046 6.593,0.214 1.322,0.071 1.599,0.126 2.355,0.382 4.03,1.361 8.358,4.991 8.439,5.427 C 1.943,-0.384 0.838,0.052 0,0"
       style="fill:#000000;fill-opacity:1;fill-rule:nonzero;stroke:none"
       transform="matrix(1.3333333,0,0,-1.3333333,94193.151,197.82947)"
       clip-path="url(#clipPath38919)" />
    <path
       id="path38920"
       d="M 0,0 C 1.087,1.663 2.629,2.142 4.445,1.752 6.8,1.245 8.092,-1.396 7.146,-3.738 6.92,-4.296 6.594,-4.847 6.195,-5.296 4.242,-7.494 2.247,-9.654 0.276,-11.835 c -0.254,-0.28 -0.457,-0.263 -0.691,-0.003 -2.004,2.226 -4.05,4.415 -5.997,6.69 -1.106,1.293 -1.418,2.832 -0.802,4.489 0.49,1.321 1.382,2.186 2.784,2.459 1.575,0.305 2.955,-0.028 4.026,-1.298 C -0.275,0.349 -0.153,0.191 0,0"
       style="fill:#000000;fill-opacity:1;fill-rule:nonzero;stroke:none"
       transform="matrix(1.3333333,0,0,-1.3333333,94178.623,177.04027)"
       clip-path="url(#clipPath38921)" />
  </g>
</svg>
