<svg xmlns="http://www.w3.org/2000/svg" viewBox="0 0 89 89" width="89" height="89"><g transform="matrix(1,0,0,1,0.380499557,0.106543221)">
<rect fill="#00000000" x="0" y="0" width="89" height="89"/>
<g>
	<g transform="matrix(1,0,0,1,44.5,44.5)">
		<g>
			<path d="M43.519501,-0.0005C43.519501,24.034935 24.034935,43.519501 -0.0005,43.519501 C-24.035933,43.519501 -43.5205,24.034935 -43.5205,-0.0005 C-43.5205,-24.035933 -24.035933,-43.5205 -0.0005,-43.5205 C24.034935,-43.5205 43.519501,-24.035933 43.519501,-0.0005 C43.519501,-0.0005 43.519501,-0.0005 43.519501,-0.0005 Z" fill="#194093"/>
		</g>
		<g>
			<path d="M-0.0005,-42.5195C23.482498,-42.5195 42.519501,-23.4825 42.519501,0.0005 C42.519501,23.483498 23.482498,42.5205 -0.0005,42.5205 C-23.4835,42.5205 -42.5205,23.483498 -42.5205,0.0005 C-42.5205,-23.4825 -23.4835,-42.5195 -0.0005,-42.5195 M-0.0005,-44.5195C-24.5485,-44.5195 -44.5205,-24.5485 -44.5205,0.0005 C-44.5205,24.5495 -24.5495,44.5205 -0.0005,44.5205 C24.5485,44.5205 44.519501,24.5495 44.519501,0.0005 C44.519501,-24.5485 24.5485,-44.5195 -0.0005,-44.5195 C-0.0005,-44.5195 -0.0005,-44.5195 -0.0005,-44.5195 C-0.0005,-44.5195 -0.0005,-44.5195 -0.0005,-44.5195 Z" fill="#252e78"/>
		</g>
		<g>
			<path d="M-5.056851,-31.297327C-5.056851,-31.297327 -5.056851,-33.421371 -5.056851,-33.421371 C-5.056851,-33.421371 -7.301949,-33.421371 -7.301949,-33.421371 C-7.301949,-33.421371 -9.547047,-33.421371 -9.547047,-33.421371 C-9.547047,-33.421371 -9.547047,-30.553912 -9.547047,-30.553912 C-9.547047,-25.629992 -9.176118,-23.592841 -7.770492,-20.831584 C-7.194575,-19.692324 -6.735794,-19.006837 -5.886561,-18.022053 C-5.886561,-18.022053 -5.252077,-17.278638 -5.252077,-17.278638 C-5.252077,-17.278638 -5.252077,-16.564187 -5.252077,-16.564187 C-5.252077,-16.564187 -5.252077,-15.849736 -5.252077,-15.849736 C-5.252077,-15.849736 -6.120832,-15.849736 -6.120832,-15.849736 C-6.960304,-15.849736 -6.999349,-15.840081 -7.184814,-15.589058 C-7.624072,-14.961499 -7.731446,-14.652547 -7.731446,-13.918787 C-7.741208,-13.310538 -7.692401,-13.107788 -7.467891,-12.644361 C-7.223859,-12.142314 -6.921259,-11.814053 -6.316058,-11.398899 C-6.316058,-11.398899 -6.10131,-11.254077 -6.10131,-11.254077 C-6.10131,-11.254077 -6.218445,-9.612771 -6.218445,-9.612771 C-6.647942,-3.626829 -7.98524,1.287436 -10.523177,6.211356 C-11.67501,8.441602 -12.856127,10.285658 -13.968915,11.608358 C-13.968915,11.608358 -14.447218,12.177988 -14.447218,12.177988 C-14.447218,12.177988 -14.408173,13.249664 -14.408173,13.249664 C-14.408173,13.249664 -14.378889,14.321341 -14.378889,14.321341 C-14.378889,14.321341 -13.968915,14.852352 -13.968915,14.852352 C-13.012308,16.107469 -12.621856,17.420514 -12.690185,19.177678 C-12.748753,20.471413 -12.95374,21.195519 -13.549179,22.189958 C-13.754166,22.537529 -14.984089,24.111252 -16.272581,25.69463 C-16.272581,25.69463 -18.625053,28.571744 -18.625053,28.571744 C-18.625053,28.571744 -18.625053,29.875135 -18.625053,29.875135 C-18.625053,29.875135 -18.625053,31.16887 -18.625053,31.16887 C-18.625053,31.16887 0.604701,31.16887 0.604701,31.16887 C0.604701,31.16887 19.834454,31.16887 19.834454,31.16887 C19.834454,31.16887 19.834454,29.836516 19.834454,29.836516 C19.834454,29.836516 19.824693,28.513816 19.824693,28.513816 C19.824693,28.513816 17.530788,25.71394 17.530788,25.71394 C14.914761,22.518219 14.631683,22.122375 14.260754,21.185864 C13.421283,19.023202 13.821496,16.445385 15.28569,14.620638 C15.568768,14.253758 15.58829,14.186175 15.617574,13.211045 C15.617574,13.211045 15.656619,12.197297 15.656619,12.197297 C15.656619,12.197297 14.963567,11.309061 14.963567,11.309061 C14.065528,10.150491 13.187012,8.827791 12.318256,7.283032 C9.380106,2.08878 7.691402,-3.877852 7.37904,-10.105163 C7.37904,-10.105163 7.320472,-11.36028 7.320472,-11.36028 C7.320472,-11.36028 7.789015,-11.698196 7.789015,-11.698196 C8.062331,-11.900945 8.364931,-12.248516 8.550396,-12.567123 C8.823712,-13.040205 8.852996,-13.185026 8.852996,-13.918787 C8.852996,-14.662202 8.823712,-14.787714 8.550396,-15.270451 C8.550396,-15.270451 8.247796,-15.801462 8.247796,-15.801462 C8.247796,-15.801462 7.349756,-15.830426 7.349756,-15.830426 C7.349756,-15.830426 6.461478,-15.859391 6.461478,-15.859391 C6.461478,-15.859391 6.461478,-16.583496 6.461478,-16.583496 C6.461478,-16.583496 6.461478,-17.307602 6.461478,-17.307602 C6.461478,-17.307602 7.066679,-18.002744 7.066679,-18.002744 C8.257557,-19.373718 9.243448,-21.130881 9.868171,-22.994247 C10.580745,-25.1376 10.775971,-26.923728 10.736926,-30.81459 C10.736926,-30.81459 10.707642,-33.373097 10.707642,-33.373097 C10.707642,-33.373097 8.491828,-33.402061 8.491828,-33.402061 C8.491828,-33.402061 6.266252,-33.421371 6.266252,-33.421371 C6.266252,-33.421371 6.266252,-31.297327 6.266252,-31.297327 C6.266252,-31.297327 6.266252,-29.173283 6.266252,-29.173283 C6.266252,-29.173283 4.509219,-29.173283 4.509219,-29.173283 C4.509219,-29.173283 2.752186,-29.173283 2.752186,-29.173283 C2.752186,-29.173283 2.752186,-31.297327 2.752186,-31.297327 C2.752186,-31.297327 2.752186,-33.421371 2.752186,-33.421371 C2.752186,-33.421371 0.585178,-33.402061 0.585178,-33.402061 C0.585178,-33.402061 -1.591591,-33.373097 -1.591591,-33.373097 C-1.591591,-33.373097 -1.620875,-31.278018 -1.620875,-31.278018 C-1.620875,-31.278018 -1.640397,-29.173283 -1.640397,-29.173283 C-1.640397,-29.173283 -3.348624,-29.173283 -3.348624,-29.173283 C-3.348624,-29.173283 -5.056851,-29.173283 -5.056851,-29.173283 C-5.056851,-29.173283 -5.056851,-31.297327 -5.056851,-31.297327 L -5.056851,-31.297327 Z" fill="#f8c409"/>
		</g>
	</g>
</g></g></svg>