<svg xmlns="http://www.w3.org/2000/svg" viewBox="0 0 89 89" width="89" height="89"><g transform="matrix(1,0,0,1,45.020499825,45.019499838)">
<rect x="0" y="0" width="89" height="89" transform="matrix(1,0,0,1,-45.020499825,-45.019499838)" fill="#00000000"/>
<g>
	<g>
		<path d="M-0.5005,43.019501C-24.497499,43.019501 -44.0205,23.497498 -44.0205,-0.5005 C-44.0205,-24.498499 -24.497499,-44.0205 -0.5005,-44.0205 C23.496498,-44.0205 43.0205,-24.497499 43.0205,-0.4995 C43.0205,23.498497 23.496498,43.019501 -0.5005,43.019501 C-0.5005,43.019501 -0.5005,43.019501 -0.5005,43.019501 Z" fill="#194093"/>
	</g>
	<g>
		<path d="M-0.5005,-43.0195C22.982498,-43.0195 42.019501,-23.9825 42.019501,-0.4995 C42.019501,22.983498 22.982498,42.0205 -0.5005,42.0205 C-23.9835,42.0205 -43.0205,22.983498 -43.0205,-0.4995 C-43.0205,-23.9825 -23.9835,-43.0195 -0.5005,-43.0195 M-0.5005,-45.0195C-25.0485,-45.0195 -45.0205,-25.0485 -45.0205,-0.4995 C-45.0205,24.0495 -25.0495,44.0205 -0.5005,44.0205 C24.0485,44.0205 44.019501,24.0495 44.019501,-0.4995 C44.019501,-25.0485 24.0485,-45.0195 -0.5005,-45.0195 C-0.5005,-45.0195 -0.5005,-45.0195 -0.5005,-45.0195 C-0.5005,-45.0195 -0.5005,-45.0195 -0.5005,-45.0195 Z" fill="#252e78"/>
	</g>
</g>
<g>
	<path d="M22.693225,10.43239L 26.734602,10.43239 L 26.734602,15.332736 L 22.693225,15.332736 L 22.693225,10.43239 Z" fill="#fffefe"/>
</g>
<g>
	<path d="M22.693225,4.528392L 26.734602,4.528392 L 26.734602,6.946383 L 22.693225,6.946383 L 22.693225,4.528392 Z" fill="#fffefe"/>
</g>
<g>
	<path d="M23.658713,-6.416646L 25.769114,-6.416646 L 25.769114,12.397541 L 23.658713,12.397541 L 23.658713,-6.416646 Z" fill="#fffefe"/>
</g>
<g>
	<path d="M-0,-23.101429L 36,-9.497476 L 0,4.106477 L -36,-9.497476 L -0,-23.101429 Z" fill="#f8c508"/>
</g>
<g>
	<path d="M18.153547,0.327307C18.153547,0.327307 0,7.187307 0,7.187307 C0,7.187307 -18,0.38533 -18,0.38533 C-18,0.38533 -18,12.819592 -18,12.819592 C-18,12.819592 0,19.621568 0,19.621568 C0,19.621568 18.153547,12.761568 18.153547,12.761568 C18.153547,12.761568 18.153547,0.327307 18.153547,0.327307 L 18.153547,0.327307 Z" fill="#f9c408"/>
</g></g></svg>