<?xml version="1.0" encoding="UTF-8" standalone="no"?>
<svg
   viewBox="0 0 87.87 87.87"
   width="117.16"
   height="117.16"
   version="1.1"
   id="svg3"
   xmlns="http://www.w3.org/2000/svg">
  <defs
     id="defs1">
    <clipPath
       clipPathUnits="userSpaceOnUse"
       id="clipPath2323">
      <path
         d="m 337.323,247.197 h 55.275 v 55.275 h -55.275 z"
         transform="translate(-365.05201,-253.74031)"
         id="path2323" />
    </clipPath>
    <clipPath
       clipPathUnits="userSpaceOnUse"
       id="clipPath2325">
      <path
         d="m 337.323,247.197 h 55.275 v 55.275 h -55.275 z"
         transform="translate(-374.24626,-279.53851)"
         id="path2325" />
    </clipPath>
  </defs>
  <g
     id="g2396"
     transform="matrix(1.1922967,0,0,1.1923636,-23982.754,-195.14571)">
    <path
       id="path2322"
       d="m 0,0 c -11.619,0 -21.074,9.454 -21.074,21.073 0,11.62 9.455,21.073 21.074,21.073 11.621,0 21.075,-9.453 21.075,-21.073 C 21.075,9.454 11.621,0 0,0 m 0,47.818 c -14.747,0 -26.746,-11.997 -26.746,-26.745 0,-14.746 11.999,-26.745 26.746,-26.745 14.748,0 26.747,11.999 26.747,26.745 0,14.748 -11.999,26.745 -26.747,26.745"
       style="fill:#000000;fill-opacity:1;fill-rule:nonzero;stroke:none"
       transform="matrix(1.3333333,0,0,-1.3333333,20151.604,228.60893)"
       clip-path="url(#clipPath2323)" />
    <path
       id="path2324"
       d="M 0,0 -0.055,0.061 -3.07,-2.635 -3.274,-2.452 V 2.329 H 0 Z m 0.827,-16.851 c -0.467,0 -0.847,0.38 -0.847,0.847 0,0.468 0.38,0.847 0.847,0.847 0.466,0 0.846,-0.379 0.846,-0.847 0,-0.467 -0.38,-0.847 -0.846,-0.847 m -2.905,8.555 1.677,1.501 0.346,-0.311 L 0,-7.044 v -3.11 z m -6.124,-3.703 V -9 l 2.464,2.204 0.811,-0.725 V -9.07 Z m -0.827,-8.997 c -0.466,0 -0.846,0.38 -0.846,0.847 0,0.467 0.38,0.847 0.846,0.847 0.467,0 0.848,-0.38 0.848,-0.847 0,-0.467 -0.381,-0.847 -0.848,-0.847 m -4.181,11.701 v 1.998 l 0.561,0.501 2.795,-2.5 v -2.999 z m -4.787,-0.51 v 2.999 l 0.01,0.011 1.677,-1.501 z m -0.827,-7.046 c -0.467,0 -0.847,0.38 -0.847,0.847 0,0.468 0.38,0.847 0.847,0.847 0.468,0 0.847,-0.379 0.847,-0.847 0,-0.467 -0.379,-0.847 -0.847,-0.847 m 3.961,19.18 v -4.557 l -0.455,-0.407 -2.679,2.396 v 2.568 z m 6.661,-0.373 v 0.373 h 3.275 v -3.303 z m 0,-6.549 1.472,-1.316 -1.472,-1.317 z m -1.652,0.297 v -3.225 l -1.804,1.612 z m 0,6.625 V 2.251 l -3.356,-3 v 3.078 z m -3.356,-6.85 v 1.998 l 3.356,3 v -2.999 l -2.795,-2.5 z m -4.787,-0.491 v 3 l 1.687,-1.51 -1.677,-1.5 z m 2.679,-2.397 -1.677,1.5 1.677,1.5 0.455,-0.407 v -2.186 z m 10.391,3.112 -0.811,-0.725 -2.464,2.203 v 3 l 3.275,-2.929 z m 3.534,-1.612 -1.677,-1.5 -0.204,0.183 v 2.634 l 0.204,0.183 z M 0,-4.773 l -0.055,0.061 -0.346,-0.31 -1.677,1.5 L 0,-1.663 Z M -8.964,8.791 -1.95,4.825 h -14.375 z m -0.065,2.756 c 0.467,0 0.848,-0.381 0.848,-0.848 0,-0.467 -0.381,-0.846 -0.848,-0.846 -0.466,0 -0.846,0.379 -0.846,0.846 0,0.467 0.38,0.848 0.846,0.848 m 4.928,-30.48 c -0.467,0 -0.847,0.38 -0.847,0.846 0,0.467 0.38,0.847 0.847,0.847 0.467,0 0.847,-0.38 0.847,-0.847 0,-0.466 -0.38,-0.846 -0.847,-0.846 m -9.935,0 c -0.467,0 -0.847,0.38 -0.847,0.846 0,0.467 0.38,0.847 0.847,0.847 0.467,0 0.847,-0.38 0.847,-0.847 0,-0.466 -0.38,-0.846 -0.847,-0.846 M 4.135,2.329 V 4.825 H 0.066 L -7.85,9.3 c 0.4,0.338 0.66,0.836 0.66,1.399 0,1.014 -0.824,1.839 -1.839,1.839 -1.014,0 -1.838,-0.825 -1.838,-1.839 0,-0.581 0.277,-1.094 0.699,-1.431 l -8.248,-4.443 h -4.106 V 2.329 h 2.872 V -14.37 c -0.598,-0.304 -1.012,-0.919 -1.012,-1.634 0,-1.013 0.824,-1.838 1.838,-1.838 1.014,0 1.839,0.825 1.839,1.838 0,0.715 -0.415,1.33 -1.012,1.634 v 2.791 l 2.679,2.396 0.455,-0.407 v -6.864 c -0.597,-0.303 -1.012,-0.917 -1.012,-1.633 0,-1.013 0.825,-1.838 1.839,-1.838 1.014,0 1.838,0.825 1.838,1.838 0,0.716 -0.414,1.33 -1.012,1.633 v 5.386 l 3.356,-3.002 v -4.446 c -0.599,-0.303 -1.013,-0.918 -1.013,-1.633 0,-1.014 0.824,-1.839 1.838,-1.839 1.015,0 1.839,0.825 1.839,1.839 0,0.715 -0.414,1.329 -1.012,1.633 v 4.743 l 3.275,2.929 v -5.61 c -0.598,-0.303 -1.012,-0.917 -1.012,-1.633 0,-1.013 0.824,-1.838 1.838,-1.838 1.014,0 1.839,0.825 1.839,1.838 0,0.716 -0.415,1.33 -1.012,1.633 v 7.088 l 0.204,0.183 3.015,-2.696 0.055,0.061 v -2.552 c -0.598,-0.304 -1.012,-0.919 -1.012,-1.634 0,-1.013 0.825,-1.838 1.839,-1.838 1.014,0 1.838,0.825 1.838,1.838 0,0.715 -0.414,1.33 -1.012,1.634 V 2.329 Z"
       style="fill:#000000;fill-opacity:1;fill-rule:nonzero;stroke:none"
       transform="matrix(1.3333333,0,0,-1.3333333,20163.863,194.21133)"
       clip-path="url(#clipPath2325)" />
  </g>
</svg>
