<?xml version="1.0" encoding="UTF-8" standalone="no"?>
<svg xmlns="http://www.w3.org/2000/svg" style="isolation:isolate" viewBox="0 0 87.87 87.87" width="87.87pt" height="87.87pt"><defs><clipPath id="_clipPath_bCg6EsrOVLzVCsVgrZ3vHMXQAScxhSj3"><rect width="87.87" height="87.87"/></clipPath></defs><g clip-path="url(#_clipPath_bCg6EsrOVLzVCsVgrZ3vHMXQAScxhSj3)"><path d=" M 34.55 34.37 C 34.67 33.89 34.98 33.47 35.4 33.21 C 35.83 32.95 36.34 32.87 36.83 32.99 C 37.31 33.11 37.73 33.42 37.99 33.84 C 38.25 34.27 38.33 34.78 38.21 35.27 L 36.53 42.14 C 36.41 42.62 36.1 43.04 35.68 43.3 C 35.25 43.56 34.74 43.64 34.25 43.52 C 33.77 43.4 33.35 43.09 33.09 42.67 C 32.83 42.24 32.75 41.73 32.87 41.24 L 34.55 34.37 Z " fill="rgb(35,31,32)"/><path d=" M 37.97 46.76 C 38.09 46.28 38.4 45.86 38.82 45.6 C 39.25 45.34 39.76 45.26 40.25 45.38 C 40.73 45.5 41.15 45.81 41.41 46.23 C 41.67 46.66 41.75 47.17 41.63 47.66 L 39.95 54.53 C 39.83 55.01 39.52 55.43 39.1 55.69 C 38.67 55.95 38.16 56.03 37.67 55.91 C 37.19 55.79 36.77 55.48 36.51 55.06 C 36.25 54.63 36.17 54.12 36.29 53.63 L 37.97 46.76 Z " fill="rgb(35,31,32)"/><path d=" M 41.85 47.94 C 41.53 47.55 41.38 47.06 41.43 46.56 C 41.48 46.06 41.72 45.61 42.1 45.29 C 42.49 44.97 42.98 44.82 43.48 44.87 C 43.98 44.92 44.43 45.16 44.75 45.54 L 49.25 51 C 49.57 51.39 49.72 51.88 49.67 52.38 C 49.62 52.88 49.38 53.33 49 53.65 C 48.61 53.97 48.12 54.12 47.62 54.07 C 47.12 54.02 46.67 53.78 46.35 53.4 L 41.85 47.94 Z " fill="rgb(35,31,32)"/><path d=" M 45.94 52.51 C 45.86 52.02 45.98 51.51 46.27 51.11 C 46.56 50.7 47 50.43 47.49 50.34 C 47.98 50.26 48.49 50.38 48.89 50.67 C 49.3 50.96 49.57 51.4 49.66 51.89 L 51.12 60.66 C 51.2 61.15 51.08 61.66 50.79 62.06 C 50.5 62.47 50.06 62.74 49.57 62.83 C 49.08 62.91 48.57 62.79 48.17 62.5 C 47.76 62.21 47.49 61.77 47.4 61.28 L 45.94 52.51 Z " fill="rgb(35,31,32)"/><path d=" M 30.11 58.01 L 36.83 52.64 C 37.22 52.33 37.71 52.18 38.21 52.24 C 38.7 52.3 39.16 52.55 39.47 52.94 C 39.78 53.33 39.93 53.82 39.87 54.32 C 39.81 54.81 39.56 55.27 39.17 55.58 L 32.45 60.95 C 32.06 61.26 31.57 61.41 31.07 61.35 C 30.58 61.29 30.12 61.04 29.81 60.65 C 29.5 60.26 29.35 59.77 29.41 59.27 C 29.47 58.78 29.72 58.32 30.11 58.01 Z " fill="rgb(35,31,32)"/><path d=" M 36.66 36.33 C 36.17 36.42 35.67 36.31 35.26 36.02 C 34.85 35.73 34.57 35.3 34.49 34.8 C 34.4 34.31 34.51 33.81 34.8 33.4 C 35.09 32.99 35.52 32.71 36.02 32.63 L 42.98 31.41 C 43.47 31.32 43.97 31.43 44.38 31.72 C 44.79 32.01 45.07 32.44 45.15 32.94 C 45.24 33.43 45.13 33.93 44.84 34.34 C 44.55 34.75 44.12 35.03 43.62 35.11 L 36.66 36.33 Z " fill="rgb(35,31,32)"/><path d=" M 53.55 37.5 C 53.88 37.87 54.05 38.36 54.03 38.85 C 54 39.35 53.78 39.82 53.41 40.16 C 53.04 40.49 52.55 40.66 52.06 40.64 C 51.56 40.61 51.09 40.39 50.75 40.02 L 46.01 34.78 C 45.68 34.41 45.51 33.92 45.53 33.43 C 45.56 32.93 45.78 32.46 46.15 32.12 C 46.52 31.79 47.01 31.62 47.5 31.64 C 48 31.67 48.47 31.89 48.81 32.26 L 53.55 37.5 Z " fill="rgb(35,31,32)"/><path d=" M 58.05 36.26 L 53.71 40.35 C 53.35 40.69 52.86 40.88 52.36 40.86 C 51.87 40.85 51.39 40.63 51.05 40.27 C 50.71 39.91 50.52 39.42 50.54 38.92 C 50.55 38.43 50.77 37.95 51.13 37.61 L 55.47 33.52 C 55.83 33.18 56.32 32.99 56.82 33.01 C 57.31 33.02 57.79 33.24 58.13 33.6 C 58.47 33.96 58.66 34.45 58.64 34.95 C 58.63 35.44 58.41 35.92 58.05 36.26 Z " fill="rgb(35,31,32)"/><path d=" M 37.97 47.05 L 40.92 31.77 C 40.92 31.77 43.02 31.36 44.82 31.21 C 45.51 31.15 48.09 31.77 48.09 31.77 L 44.7 47.39 L 37.97 47.05 L 37.97 47.05 Z " fill="rgb(35,31,32)"/><path d=" M 49.24 24.82 C 49.8 26.86 48.61 28.97 46.57 29.54 C 44.53 30.1 42.42 28.91 41.85 26.87 C 41.29 24.83 42.48 22.72 44.52 22.15 C 46.57 21.59 48.68 22.78 49.24 24.82 Z " fill="rgb(35,31,32)"/><path d=" M 48.37 77.09 L 49.55 86.01 C 47.7 86.25 45.81 86.38 43.94 86.38 C 42.12 86.38 40.29 86.26 38.5 86.03 L 39.65 77.1 C 42.51 77.47 45.49 77.47 48.37 77.09 M 69.8 10.28 C 66.86 8.02 63.64 6.15 60.22 4.73 L 56.76 13.04 C 59.45 14.16 61.99 15.63 64.31 17.41 L 69.8 10.28 L 69.8 10.28 Z  M 4.77 60.31 C 6.2 63.72 8.07 66.94 10.34 69.88 L 17.46 64.38 C 15.67 62.07 14.2 59.53 13.07 56.85 L 4.77 60.31 L 4.77 60.31 Z  M 18.19 77.67 C 21.14 79.92 24.37 81.78 27.79 83.19 L 31.22 74.87 C 28.53 73.76 25.98 72.3 23.66 70.52 L 18.19 77.67 L 18.19 77.67 Z  M 56.78 74.82 L 60.24 83.13 C 63.65 81.71 66.88 79.84 69.81 77.57 L 64.32 70.44 C 62.01 72.23 59.47 73.7 56.78 74.82 Z  M 86.02 38.39 L 77.1 39.56 C 77.29 41 77.38 42.47 77.38 43.94 C 77.38 45.39 77.29 46.86 77.1 48.3 L 86.03 49.46 C 86.27 47.64 86.38 45.78 86.38 43.95 C 86.38 42.08 86.26 40.22 86.02 38.39 M 70.49 64.27 L 77.63 69.75 C 79.89 66.81 81.75 63.58 83.17 60.16 L 74.85 56.72 C 73.74 59.41 72.27 61.95 70.49 64.27 Z  M 83.16 27.69 C 81.74 24.27 79.88 21.05 77.62 18.11 L 70.48 23.59 C 72.26 25.91 73.73 28.45 74.85 31.14 L 83.16 27.69 L 83.16 27.69 Z  M 10.5 43.94 C 10.5 25.5 25.5 10.5 43.94 10.5 C 45.41 10.5 46.89 10.6 48.35 10.79 L 49.52 1.87 C 47.67 1.62 45.8 1.5 43.94 1.5 C 20.54 1.5 1.5 20.54 1.5 43.94 C 1.5 45.8 1.62 47.68 1.86 49.52 L 10.78 48.34 C 10.59 46.89 10.5 45.41 10.5 43.94 Z " fill="rgb(35,31,32)"/><path d=" M 65.89 63.79 C 66.16 63.79 66.41 63.9 66.6 64.08 C 66.78 64.27 66.89 64.52 66.89 64.79 C 66.89 65.06 66.78 65.31 66.6 65.5 C 66.41 65.68 66.16 65.79 65.89 65.79 L 21.99 65.79 C 21.72 65.79 21.47 65.68 21.28 65.5 C 21.1 65.31 20.99 65.06 20.99 64.79 C 20.99 64.52 21.1 64.27 21.28 64.08 C 21.47 63.9 21.72 63.79 21.99 63.79 L 65.89 63.79 Z " fill="rgb(35,31,32)"/></g></svg>