<?xml version="1.0" encoding="UTF-8" standalone="no"?>
<svg xmlns="http://www.w3.org/2000/svg" style="isolation:isolate" viewBox="0 0 87.87 87.87" width="87.87pt" height="87.87pt"><defs><clipPath id="_clipPath_EQwdRCTipw98on3gXgkETrtK8y6Td3Oj"><rect width="87.87" height="87.87"/></clipPath></defs><g clip-path="url(#_clipPath_EQwdRCTipw98on3gXgkETrtK8y6Td3Oj)"><path d=" M 35.23 42.94 C 35.1 42.48 35.16 41.99 35.39 41.57 C 35.63 41.16 36.01 40.85 36.47 40.72 C 36.93 40.59 37.42 40.65 37.84 40.88 C 38.25 41.12 38.56 41.5 38.69 41.96 L 42.03 53.77 L 30.73 56.66 C 30.27 56.78 29.78 56.71 29.38 56.46 C 28.97 56.22 28.67 55.82 28.55 55.36 C 28.43 54.9 28.5 54.41 28.75 54.01 C 28.99 53.6 29.39 53.3 29.85 53.18 L 37.57 51.21 L 35.23 42.94 Z " fill="rgb(35,31,32)"/><path d=" M 61.28 37.95 C 61.72 37.79 62.22 37.82 62.65 38.02 C 63.08 38.22 63.41 38.59 63.57 39.04 C 63.73 39.48 63.7 39.98 63.5 40.41 C 63.3 40.84 62.93 41.17 62.48 41.33 L 53.45 44.56 L 47.42 37.25 C 47.11 36.88 46.97 36.41 47.01 35.94 C 47.06 35.47 47.29 35.03 47.66 34.73 C 48.03 34.42 48.5 34.28 48.97 34.32 C 49.44 34.37 49.88 34.6 50.18 34.97 L 54.61 40.34 L 61.28 37.95 Z " fill="rgb(35,31,32)"/><path d=" M 44.81 35.32 L 39.5 32.09 L 32.84 33.72 C 32.37 33.84 31.89 33.76 31.48 33.51 C 31.07 33.27 30.78 32.87 30.67 32.41 C 30.55 31.94 30.63 31.46 30.88 31.05 C 31.12 30.64 31.52 30.35 31.98 30.24 L 40.1 28.25 L 46.67 32.26 C 47.08 32.51 47.37 32.9 47.48 33.37 C 47.6 33.83 47.52 34.32 47.27 34.72 C 47.02 35.13 46.63 35.42 46.16 35.53 C 45.7 35.65 45.21 35.57 44.81 35.32 Z " fill="rgb(35,31,32)"/><path d=" M 31.9 42.58 C 31.97 42.11 32.22 41.69 32.6 41.41 C 32.99 41.13 33.47 41.01 33.94 41.08 C 34.41 41.15 34.83 41.4 35.11 41.78 C 35.39 42.17 35.51 42.65 35.44 43.12 L 34.07 52.27 L 23.85 59.64 C 23.46 59.92 22.98 60.04 22.51 59.96 C 22.04 59.88 21.62 59.62 21.35 59.24 C 21.07 58.85 20.95 58.37 21.03 57.9 C 21.11 57.43 21.37 57.01 21.75 56.74 L 30.75 50.25 L 31.9 42.58 Z " fill="rgb(35,31,32)"/><g><path d=" M 32.35 41.63 L 46 31.6 C 46 31.6 47.99 32.79 49.56 33.97 C 50.16 34.42 51.8 36.79 51.8 36.79 L 37.9 45.77 L 32.35 41.63 L 32.35 41.63 Z " fill="rgb(35,31,32)"/><path d=" M 57.75 32.02 C 56.73 34.08 54.23 34.91 52.18 33.89 C 50.12 32.87 49.29 30.37 50.31 28.32 C 51.33 26.27 53.83 25.43 55.88 26.45 C 57.93 27.47 58.77 29.97 57.75 32.02 Z " fill="rgb(35,31,32)"/><path d=" M 65.89 60.79 C 66.16 60.79 66.41 60.9 66.6 61.08 C 66.78 61.27 66.89 61.52 66.89 61.79 C 66.89 62.06 66.78 62.31 66.6 62.5 C 66.41 62.68 66.16 62.79 65.89 62.79 L 21.99 62.79 C 21.72 62.79 21.47 62.68 21.28 62.5 C 21.1 62.31 20.99 62.06 20.99 61.79 C 20.99 61.52 21.1 61.27 21.28 61.08 C 21.47 60.9 21.72 60.79 21.99 60.79 L 65.89 60.79 Z " fill="rgb(35,31,32)"/><path d=" M 33.67 42.85 L 33.67 52.72 L 38.24 42.1 L 33.67 42.85 Z " fill="rgb(35,31,32)"/><path d=" M 32.66 45.59 L 39.25 52.95 L 35.57 41.99 L 32.66 45.59 Z " fill="rgb(35,31,32)"/><path d=" M 4.73 60.22 C 6.15 63.63 8.01 66.85 10.27 69.79 L 17.41 64.3 C 15.63 61.98 14.16 59.45 13.04 56.76 L 4.73 60.22 L 4.73 60.22 Z " fill="rgb(35,31,32)"/><path d=" M 18.09 77.6 C 21.03 79.86 24.25 81.72 27.66 83.14 L 31.11 74.83 C 28.42 73.71 25.89 72.25 23.57 70.46 L 18.09 77.6 L 18.09 77.6 Z " fill="rgb(35,31,32)"/><path d=" M 43.94 1.5 C 20.53 1.5 1.5 20.54 1.5 43.94 C 1.5 45.8 1.62 47.68 1.86 49.51 L 10.78 48.34 C 10.59 46.89 10.49 45.42 10.49 43.94 C 10.49 25.5 25.49 10.5 43.93 10.5 C 62.37 10.5 77.37 25.5 77.37 43.94 C 77.37 62.38 62.37 77.38 43.93 77.38 C 42.46 77.38 40.98 77.28 39.53 77.09 L 38.36 86.01 C 40.19 86.25 42.07 86.37 43.93 86.37 C 67.33 86.37 86.37 67.33 86.37 43.93 C 86.38 20.54 67.34 1.5 43.94 1.5 Z " fill="rgb(35,31,32)"/></g></g></svg>