<?xml version="1.0" encoding="UTF-8" standalone="no"?>
<svg xmlns="http://www.w3.org/2000/svg" style="isolation:isolate" viewBox="0 0 87.87 87.87" width="87.87pt" height="87.87pt"><defs><clipPath id="_clipPath_OGRoNMpgHU7P7WPIglK2xXr4u3rVaNOj"><rect width="87.87" height="87.87"/></clipPath></defs><g clip-path="url(#_clipPath_OGRoNMpgHU7P7WPIglK2xXr4u3rVaNOj)"><path d=" M 43.94 1.5 C 20.54 1.5 1.5 20.54 1.5 43.94 C 1.5 67.34 20.54 86.38 43.94 86.38 C 67.34 86.38 86.38 67.34 86.38 43.94 C 86.38 20.54 67.34 1.5 43.94 1.5 Z  M 43.94 77.38 C 25.5 77.38 10.5 62.38 10.5 43.94 C 10.5 25.5 25.5 10.5 43.94 10.5 C 62.38 10.5 77.38 25.5 77.38 43.94 C 77.38 62.37 62.38 77.38 43.94 77.38 Z " fill="rgb(35,31,32)"/><path d=" M 65.89 63.79 C 66.16 63.79 66.41 63.9 66.6 64.08 C 66.78 64.27 66.89 64.52 66.89 64.79 C 66.89 65.06 66.78 65.31 66.6 65.5 C 66.41 65.68 66.16 65.79 65.89 65.79 L 21.99 65.79 C 21.72 65.79 21.47 65.68 21.28 65.5 C 21.1 65.31 20.99 65.06 20.99 64.79 C 20.99 64.52 21.1 64.27 21.28 64.08 C 21.47 63.9 21.72 63.79 21.99 63.79 L 65.89 63.79 Z " fill="rgb(35,31,32)"/><path d=" M 60.93 30.41 C 60.01 29.93 58.88 30.28 58.4 31.2 L 56.68 34.49 L 52.63 31.91 L 52.64 31.9 C 52.64 31.9 52.56 31.85 52.41 31.78 L 52.38 31.76 C 52.35 31.74 52.31 31.73 52.27 31.71 C 51.59 31.35 50.15 30.6 49.64 30.5 C 49.11 30.4 48.56 30.32 48.03 30.25 C 47.96 30.24 47.88 30.21 47.81 30.21 L 47.12 30.14 C 46.32 30.05 45.75 30.01 45.75 30.01 L 45.75 30.01 L 40.81 29.53 C 39.82 29.43 38.95 30.12 38.79 31.09 L 38.06 32.4 L 32.2 32.4 C 31.68 32.4 31.26 32.82 31.26 33.34 C 31.26 33.86 31.68 34.28 32.2 34.28 L 37 34.28 L 35.5 36.97 C 34.99 37.87 35.32 39.02 36.22 39.52 C 36.51 39.68 36.82 39.76 37.13 39.76 C 37.79 39.76 38.43 39.41 38.77 38.8 L 41.79 33.4 L 43.96 33.61 L 39.74 42.12 L 27.33 42.12 C 26.81 42.12 26.39 42.54 26.39 43.06 C 26.39 43.58 26.81 44 27.33 44 L 38.73 44 L 36.03 48.84 L 27.88 49 C 26.85 49.02 26.02 49.88 26.04 50.91 C 26.06 51.93 26.9 52.75 27.91 52.75 L 27.95 52.75 L 36.51 52.58 C 36.62 52.58 36.72 52.56 36.82 52.54 C 36.92 52.55 37.02 52.58 37.12 52.58 C 37.78 52.58 38.42 52.23 38.76 51.62 L 42.1 45.64 C 42.2 45.97 42.38 46.28 42.66 46.53 L 47.44 50.71 L 47.04 60.26 C 47 61.29 47.8 62.17 48.84 62.21 C 48.87 62.21 48.89 62.21 48.92 62.21 C 49.92 62.21 50.75 61.42 50.79 60.41 L 51.21 50.17 C 51.22 49.81 51.13 49.48 50.98 49.19 C 50.88 48.87 50.7 48.57 50.43 48.34 L 46.03 44.49 L 50.87 35.27 L 55.73 38.36 C 55.9 38.63 56.13 38.86 56.43 39.02 C 56.71 39.16 57 39.23 57.3 39.23 C 57.98 39.23 58.63 38.86 58.96 38.22 L 61.71 32.96 C 62.21 32.02 61.85 30.89 60.93 30.41 Z " fill="rgb(35,31,32)"/><path d=" M 51.76 29.36 C 53.87 29.36 55.58 27.65 55.58 25.54 C 55.58 23.43 53.87 21.72 51.76 21.72 C 49.65 21.72 47.94 23.43 47.94 25.54 C 47.94 27.65 49.65 29.36 51.76 29.36 Z " fill="rgb(35,31,32)"/><path d=" M 35.26 27.31 L 43.91 27.31 C 44.43 27.31 44.85 26.89 44.85 26.37 C 44.85 25.85 44.43 25.43 43.91 25.43 L 35.26 25.43 C 34.74 25.43 34.32 25.85 34.32 26.37 C 34.32 26.89 34.74 27.31 35.26 27.31 Z " fill="rgb(35,31,32)"/></g></svg>