<?xml version="1.0" encoding="UTF-8" standalone="no"?>
<svg
   viewBox="0 0 87.87 87.87"
   width="117.16"
   height="117.16"
   version="1.1"
   id="svg3"
   xmlns:xlink="http://www.w3.org/1999/xlink"
   xmlns="http://www.w3.org/2000/svg">
  <defs
     id="defs1">
    <clipPath
       id="A">
      <path
         d="M 0,0 H 87.87 V 87.87 H 0 Z"
         id="path1" />
    </clipPath>
    <path
       id="B"
       d="m 53.5,46.34 c 0,0 9.05,-5.3 6.2,-10.59 -1.88,-3.48 -3.57,-5.09 -2.15,-11.96 0,0 -7.88,7.46 -5.92,11.42 1.95,3.94 4.36,6.25 1.87,11.13 z" />
  </defs>
  <g
     clip-path="url(#A)"
     id="g3">
    <path
       d="M 43.94,1.5 C 20.54,1.5 1.5,20.54 1.5,43.94 c 0,23.4 19.04,42.44 42.44,42.44 23.4,0 42.44,-19.04 42.44,-42.44 C 86.38,20.54 67.34,1.5 43.94,1.5 Z m 0,75.88 c -18.44,0 -33.44,-15 -33.44,-33.44 0,-18.44 15,-33.44 33.44,-33.44 18.44,0 33.44,15 33.44,33.44 0,18.43 -15,33.44 -33.44,33.44 z M 40.32,52.92 c 0,0 14.34,-8.4 9.82,-16.77 -2.98,-5.51 -5.65,-8.07 -3.41,-18.95 0,0 -12.48,11.82 -9.38,18.08 3.1,6.26 6.91,9.91 2.97,17.64 z"
       id="path2" />
    <use
       href="#B"
       id="use2" />
    <path
       d="m 29.8,46.34 c 0,0 9.05,-5.3 6.2,-10.59 -1.88,-3.48 -3.57,-5.09 -2.15,-11.96 0,0 -7.88,7.46 -5.92,11.42 1.95,3.94 4.36,6.25 1.87,11.13 z m 27.88,6.53 -13.74,5.41 -13.74,-5.41 -1.84,4.65 8.75,3.44 -8.75,3.45 1.84,4.65 13.74,-5.41 13.74,5.41 1.83,-4.65 -8.75,-3.45 8.75,-3.44 z"
       id="path3" />
  </g>
</svg>
