<?xml version="1.0" encoding="UTF-8" standalone="no"?>
<svg
   viewBox="0 0 87.87 87.87"
   width="117.16"
   height="117.16"
   version="1.1"
   id="svg3"
   xmlns="http://www.w3.org/2000/svg">
  <defs
     id="defs1">
    <clipPath
       clipPathUnits="userSpaceOnUse"
       id="clipPath6241">
      <path
         d="m 28.346,338.74 h 55.275 v 55.275 H 28.346 Z"
         transform="translate(-53.184001,-344.77801)"
         id="path6241" />
    </clipPath>
    <clipPath
       clipPathUnits="userSpaceOnUse"
       id="clipPath6243">
      <path
         d="m 28.346,338.74 h 55.275 v 55.275 H 28.346 Z"
         transform="translate(-72.825002,-388.29301)"
         id="path6243" />
    </clipPath>
    <clipPath
       clipPathUnits="userSpaceOnUse"
       id="clipPath6245">
      <path
         d="m 28.346,338.74 h 55.275 v 55.275 H 28.346 Z"
         transform="translate(-30.479251,-355.71761)"
         id="path6245" />
    </clipPath>
    <clipPath
       clipPathUnits="userSpaceOnUse"
       id="clipPath6247">
      <path
         d="m 28.346,338.74 h 55.275 v 55.275 H 28.346 Z"
         transform="translate(-39.214501,-344.40801)"
         id="path6247" />
    </clipPath>
    <clipPath
       clipPathUnits="userSpaceOnUse"
       id="clipPath6249">
      <path
         d="m 28.346,338.74 h 55.275 v 55.275 H 28.346 Z"
         transform="translate(-64.349252,-346.26531)"
         id="path6249" />
    </clipPath>
    <clipPath
       clipPathUnits="userSpaceOnUse"
       id="clipPath6251">
      <path
         d="m 28.346,338.74 h 55.275 v 55.275 H 28.346 Z"
         transform="translate(-83.388002,-369.98771)"
         id="path6251" />
    </clipPath>
    <clipPath
       clipPathUnits="userSpaceOnUse"
       id="clipPath6253">
      <path
         d="m 28.346,338.74 h 55.275 v 55.275 H 28.346 Z"
         transform="translate(-73.275002,-353.13851)"
         id="path6253" />
    </clipPath>
    <clipPath
       clipPathUnits="userSpaceOnUse"
       id="clipPath6255">
      <path
         d="m 28.346,338.74 h 55.275 v 55.275 H 28.346 Z"
         transform="translate(-81.524252,-376.95681)"
         id="path6255" />
    </clipPath>
    <clipPath
       clipPathUnits="userSpaceOnUse"
       id="clipPath6257">
      <path
         d="m 28.346,338.74 h 55.275 v 55.275 H 28.346 Z"
         transform="translate(-34.207501,-366.37851)"
         id="path6257" />
    </clipPath>
    <clipPath
       clipPathUnits="userSpaceOnUse"
       id="clipPath6259">
      <path
         d="m 28.346,338.74 h 55.275 v 55.275 H 28.346 Z"
         transform="translate(-56.451001,-372.61061)"
         id="path6259" />
    </clipPath>
    <clipPath
       clipPathUnits="userSpaceOnUse"
       id="clipPath6261">
      <path
         d="m 28.346,338.74 h 55.275 v 55.275 H 28.346 Z"
         transform="translate(-52.317001,-370.66311)"
         id="path6261" />
    </clipPath>
  </defs>
  <g
     id="g6297"
     transform="matrix(1.1538689,0,0,1.1538587,-60370.596,-46.555524)">
    <path
       id="path6240"
       d="m 0,0 -0.745,-5.812 c 1.167,-0.15 2.359,-0.226 3.545,-0.226 1.221,0 2.451,0.081 3.655,0.239 L 5.687,0.012 C 3.814,-0.236 1.871,-0.24 0,0"
       style="fill:#000000;fill-opacity:1;fill-rule:nonzero;stroke:none"
       transform="matrix(1.3333333,0,0,-1.3333333,52354.496,107.22533)"
       clip-path="url(#clipPath6241)" />
    <path
       id="path6242"
       d="m 0,0 c -1.914,1.475 -4.014,2.69 -6.24,3.615 l -2.25,-5.412 c 1.753,-0.728 3.406,-1.686 4.914,-2.847 z"
       style="fill:#000000;fill-opacity:1;fill-rule:nonzero;stroke:none"
       transform="matrix(1.3333333,0,0,-1.3333333,52380.684,49.205333)"
       clip-path="url(#clipPath6243)" />
    <path
       id="path6244"
       d="m 0,0 c 0.928,-2.222 2.148,-4.317 3.626,-6.23 l 4.637,3.585 C 7.098,-1.138 6.138,0.512 5.407,2.261 Z"
       style="fill:#000000;fill-opacity:1;fill-rule:nonzero;stroke:none"
       transform="matrix(1.3333333,0,0,-1.3333333,52324.223,92.6392)"
       clip-path="url(#clipPath6245)" />
    <path
       id="path6246"
       d="m 0,0 c 1.919,-1.468 4.023,-2.677 6.25,-3.595 l 2.232,5.42 C 6.729,2.547 5.073,3.5 3.56,4.657 Z"
       style="fill:#000000;fill-opacity:1;fill-rule:nonzero;stroke:none"
       transform="matrix(1.3333333,0,0,-1.3333333,52335.87,107.71867)"
       clip-path="url(#clipPath6247)" />
    <path
       id="path6248"
       d="m 0,0 2.252,-5.411 c 2.224,0.927 4.321,2.142 6.235,3.617 L 4.911,2.849 C 3.402,1.688 1.75,0.729 0,0"
       style="fill:#000000;fill-opacity:1;fill-rule:nonzero;stroke:none"
       transform="matrix(1.3333333,0,0,-1.3333333,52369.383,105.24227)"
       clip-path="url(#clipPath6249)" />
    <path
       id="path6250"
       d="m 0,0 -5.812,-0.759 c 0.123,-0.937 0.185,-1.896 0.185,-2.85 0,-0.947 -0.062,-1.902 -0.183,-2.838 l 5.813,-0.752 c 0.153,1.185 0.231,2.393 0.231,3.59 C 0.234,-2.404 0.155,-1.189 0,0"
       style="fill:#000000;fill-opacity:1;fill-rule:nonzero;stroke:none"
       transform="matrix(1.3333333,0,0,-1.3333333,52394.768,73.6124)"
       clip-path="url(#clipPath6251)" />
    <path
       id="path6252"
       d="M 0,0 4.65,-3.568 C 6.122,-1.651 7.334,0.45 8.256,2.677 L 2.84,4.917 C 2.115,3.164 1.159,1.509 0,0"
       style="fill:#000000;fill-opacity:1;fill-rule:nonzero;stroke:none"
       transform="matrix(1.3333333,0,0,-1.3333333,52381.284,96.078)"
       clip-path="url(#clipPath6253)" />
    <path
       id="path6254"
       d="M 0,0 C -0.923,2.226 -2.137,4.324 -3.608,6.24 L -8.257,2.671 c 1.16,-1.51 2.116,-3.165 2.844,-4.917 z"
       style="fill:#000000;fill-opacity:1;fill-rule:nonzero;stroke:none"
       transform="matrix(1.3333333,0,0,-1.3333333,52392.283,64.320267)"
       clip-path="url(#clipPath6255)" />
    <path
       id="path6256"
       d="m 0,0 c 0,12.007 9.769,21.776 21.776,21.776 0.959,0 1.923,-0.063 2.868,-0.187 L 25.407,27.4 C 24.21,27.557 22.99,27.637 21.776,27.637 6.538,27.637 -5.861,15.239 -5.861,0 c 0,-1.214 0.08,-2.436 0.237,-3.632 l 5.811,0.765 C 0.064,-1.924 0,-0.96 0,0"
       style="fill:#000000;fill-opacity:1;fill-rule:nonzero;stroke:none"
       transform="matrix(1.3333333,0,0,-1.3333333,52329.194,78.424667)"
       clip-path="url(#clipPath6257)" />
    <path
       id="path6258"
       d="M 0,0 C -0.008,-1.507 1.251,-2.792 2.749,-2.805 4.247,-2.82 5.517,-1.557 5.528,-0.042 5.537,1.516 4.35,2.719 2.792,2.728 1.236,2.736 0.008,1.535 0,0"
       style="fill:#000000;fill-opacity:1;fill-rule:nonzero;stroke:none"
       transform="matrix(1.3333333,0,0,-1.3333333,52358.852,70.1152)"
       clip-path="url(#clipPath6259)" />
    <path
       id="path6260"
       d="m 0,0 -7.695,-7.695 c -1.126,-1.126 -1.126,-2.951 0,-4.076 l 0.635,-0.637 c 0.578,-0.578 1.341,-0.854 2.099,-0.838 h 19.423 c 0.779,0 1.412,0.644 1.412,1.44 0,0.796 -0.633,1.441 -1.412,1.441 H -0.94 l 5.704,5.704 5.597,-3.649 c 0.583,-0.38 1.365,-0.215 1.745,0.368 0.138,0.212 0.204,0.451 0.204,0.687 0,0.412 -0.201,0.816 -0.572,1.057 L 2.405,0.077 C 1.711,0.682 0.661,0.661 0,0"
       style="fill:#000000;fill-opacity:1;fill-rule:nonzero;stroke:none"
       transform="matrix(1.3333333,0,0,-1.3333333,52353.34,72.711867)"
       clip-path="url(#clipPath6261)" />
  </g>
</svg>
